<?xml version="1.0" encoding="UTF-8" standalone="no"?><!DOCTYPE svg PUBLIC "-//W3C//DTD SVG 1.1//EN" "http://www.w3.org/Graphics/SVG/1.1/DTD/svg11.dtd"><svg width="100%" height="100%" viewBox="0 0 2334 521" version="1.1" xmlns="http://www.w3.org/2000/svg" xmlns:xlink="http://www.w3.org/1999/xlink" xml:space="preserve" xmlns:serif="http://www.serif.com/" style="fill-rule:evenodd;clip-rule:evenodd;stroke-linecap:round;stroke-linejoin:round;stroke-miterlimit:1.5;"><path d="M1333.66,122.767l0,137.011c0,42.033 -34.125,76.158 -76.157,76.158l-1143.87,-0c-42.032,-0 -76.157,-34.125 -76.157,-76.158l-0,-137.011c-0,-42.033 34.125,-76.158 76.157,-76.158l1143.87,-0c42.032,-0 76.157,34.125 76.157,76.158Z" style="fill:#fff;"/><path d="M302.789,153.778c-5.758,-11.594 -51.83,-31.527 -106.253,-28.998c11.27,-35.658 29.167,-50.793 29.167,-50.793c-58.767,-8.639 -130.21,38.27 -159.004,115.219l46.219,-11.918c36.301,-7.768 86.597,-14.858 122.802,-5.366c63.106,16.541 -134.165,105.048 -134.165,105.048c-0,-0 42.841,18.187 106.976,-6.682c92.372,-35.818 104.604,-95.679 94.258,-116.51Z" style="fill:#4c4343;fill-rule:nonzero;"/><path d="M189.414,112.257c43.61,-0 79.015,35.405 79.015,79.016c0,43.61 -35.405,79.015 -79.015,79.015c-43.61,0 -79.016,-35.405 -79.016,-79.015c-0,-43.611 35.406,-79.016 79.016,-79.016Z" style="fill:url(#_Radial1);"/><path d="M194.882,194.341c-8.275,-20.534 -67.229,-12.718 -84.304,-8.355c-0.116,1.748 -0.18,3.51 -0.18,5.287c-0,24.73 11.364,46.804 29.152,61.292c13.371,-5.903 63.804,-37.2 55.332,-58.224Z" style="fill:#a81106;fill-rule:nonzero;"/><path d="M156.229,151.099c21.403,-6.441 42.59,-9.845 61.271,-9.845c16.384,-0 28.679,2.353 37.598,6.088c-14.178,-21.157 -38.304,-35.085 -65.684,-35.085c-35.561,-0 -65.632,23.492 -75.548,55.803c13.224,-6.729 27.588,-12.516 42.363,-16.961Z" style="fill:#a81106;fill-rule:nonzero;"/><path d="M268.426,191.589c-5.643,9.458 -14.849,19.379 -27.042,28.906c-22.636,17.685 -52.598,32.05 -84.367,40.449c-1.096,0.29 -2.191,0.57 -3.286,0.844c10.719,5.435 22.842,8.5 35.683,8.5c43.533,0 78.84,-35.205 79.012,-78.699Z" style="fill:#a81106;fill-rule:nonzero;"/><path d="M304.093,147.455c-0,-0 -29.336,-32.574 -83.816,-35.182c-95.87,-4.591 -64.228,-21.948 -46.869,-28.915c21.683,-8.703 52.167,-9.362 52.295,-9.371c-11.469,-3.544 -23.655,-5.456 -36.289,-5.456c-67.098,0 -121.611,53.841 -122.715,120.675c20.881,-18.688 51.617,-35.761 87.029,-46.417c70.521,-21.219 129.806,-8.295 129.806,28.802c0,36.188 -56.722,79.876 -124.299,97.742c-20.87,5.517 -40.518,7.953 -57.68,7.637c22.29,22.851 53.415,37.043 87.859,37.043c67.788,0 122.741,-54.953 122.741,-122.74c0,-15.439 -2.859,-30.209 -8.062,-43.818Z" style="fill:url(#_Linear2);fill-rule:nonzero;"/><path d="M94.406,199.769c-9.355,3.102 -18.189,6.577 -26.294,10.271c2.843,18.53 9.836,35.691 19.991,50.514c7.797,-1.789 15.924,-4.057 24.207,-6.804c46.431,-15.4 80.062,-39.968 75.118,-54.875c-4.944,-14.906 -46.592,-14.506 -93.022,0.894Z" style="fill:url(#_Linear3);fill-rule:nonzero;"/><path d="M501.079,155.96l-24.677,0c-0.98,0 -1.994,0.055 -3.04,0.164c-1.024,0.109 -1.917,0.435 -2.68,0.98c-0.653,0.546 -1.056,1.221 -1.209,2.026c-0.174,0.828 -0.262,1.679 -0.262,2.55l-0,7.844c-0,0.872 0.088,1.71 0.262,2.517c0.153,0.828 0.556,1.514 1.209,2.058c0.763,0.546 1.656,0.873 2.68,0.982c1.046,0.109 2.06,0.163 3.04,0.163l24.677,0l-0,-19.284Zm26.146,32.357l-50.823,-0c-3.159,-0 -6.395,-0.164 -9.707,-0.49c-3.335,-0.327 -6.145,-1.416 -8.433,-3.269c-2.178,-1.852 -3.486,-4.118 -3.922,-6.798c-0.435,-2.657 -0.653,-5.403 -0.653,-8.236l-0,-7.844c-0,-2.833 0.218,-5.589 0.653,-8.27c0.436,-2.657 1.744,-4.913 3.922,-6.764c2.288,-1.853 5.098,-2.941 8.433,-3.268c3.312,-0.328 6.548,-0.492 9.707,-0.492l24.677,0l-0,-8.497c-0,-1.198 -0.143,-2.363 -0.426,-3.497c-0.262,-1.155 -0.883,-2.06 -1.863,-2.713c-1.199,-0.871 -2.691,-1.361 -4.477,-1.47c-1.809,-0.109 -3.53,-0.163 -5.165,-0.163l-11.603,-0c-0.871,-0 -1.721,0.02 -2.548,0.064c-0.807,0.065 -1.482,0.371 -2.026,0.916c-0.547,0.544 -0.873,1.143 -0.982,1.798c-0.109,0.653 -0.163,1.361 -0.163,2.123l-0,3.268l-15.524,0l-0,-3.268c-0,-2.615 0.195,-5.23 0.588,-7.843c0.37,-2.615 1.591,-4.794 3.66,-6.538c2.179,-1.851 4.794,-2.919 7.844,-3.203c3.051,-0.26 6.101,-0.391 9.151,-0.391l11.603,-0c3.814,-0 7.735,0.163 11.767,0.49c4.031,0.326 7.462,1.58 10.295,3.758c2.506,1.852 4.032,4.304 4.576,7.354c0.544,3.051 0.817,6.155 0.817,9.315l-0,40.855l10.622,0l0,13.073Zm94.945,-61.771l-24.511,-0c-1.526,-0 -3.105,0.163 -4.74,0.49c-1.635,0.326 -2.887,1.143 -3.758,2.451c-0.873,1.307 -1.417,2.833 -1.635,4.575c-0.218,1.744 -0.327,3.54 -0.327,5.393l0,22.878c0,1.853 0.109,3.649 0.327,5.393c0.218,1.744 0.762,3.268 1.635,4.577c0.871,1.306 2.123,2.123 3.758,2.451c1.635,0.327 3.214,0.49 4.74,0.49l24.511,0l0,-48.698Zm26.149,61.771l-50.66,-0c-3.814,-0 -7.595,-0.218 -11.343,-0.654c-3.768,-0.435 -6.961,-2.07 -9.576,-4.903c-2.615,-2.832 -4.139,-6.242 -4.575,-10.229c-0.435,-3.966 -0.655,-7.91 -0.655,-11.831l0,-19.61c0,-3.923 0.22,-7.867 0.655,-11.832c0.436,-3.988 1.96,-7.397 4.575,-10.23c2.615,-2.833 5.808,-4.468 9.576,-4.903c3.748,-0.436 7.529,-0.653 11.343,-0.653l24.511,-0l0,-31.866l-10.622,-0l-0,-13.075l26.148,0l-0,106.713l10.623,0l-0,13.073Zm92.82,-32.357l-24.675,0c-0.982,0 -1.994,0.055 -3.04,0.164c-1.024,0.109 -1.918,0.435 -2.68,0.98c-0.655,0.546 -1.058,1.221 -1.209,2.026c-0.176,0.828 -0.262,1.679 -0.262,2.55l-0,7.844c-0,0.872 0.086,1.71 0.262,2.517c0.151,0.828 0.554,1.514 1.209,2.058c0.762,0.546 1.656,0.873 2.68,0.982c1.046,0.109 2.058,0.163 3.04,0.163l24.675,0l-0,-19.284Zm26.148,32.357l-50.823,-0c-3.159,-0 -6.395,-0.164 -9.707,-0.49c-3.335,-0.327 -6.145,-1.416 -8.434,-3.269c-2.179,-1.852 -3.485,-4.118 -3.921,-6.798c-0.435,-2.657 -0.653,-5.403 -0.653,-8.236l-0,-7.844c-0,-2.833 0.218,-5.589 0.653,-8.27c0.436,-2.657 1.742,-4.913 3.921,-6.764c2.289,-1.853 5.099,-2.941 8.434,-3.268c3.312,-0.328 6.548,-0.492 9.707,-0.492l24.675,0l-0,-8.497c-0,-1.198 -0.129,-2.363 -0.391,-3.497c-0.285,-1.155 -0.916,-2.06 -1.896,-2.713c-1.199,-0.871 -2.691,-1.361 -4.477,-1.47c-1.809,-0.109 -3.53,-0.163 -5.165,-0.163l-11.603,-0c-0.871,-0 -1.722,0.02 -2.548,0.064c-0.807,0.065 -1.482,0.371 -2.028,0.916c-0.545,0.544 -0.871,1.143 -0.98,1.798c-0.109,0.653 -0.163,1.361 -0.163,2.123l-0,3.268l-15.524,0l-0,-3.268c-0,-2.615 0.195,-5.23 0.587,-7.843c0.37,-2.615 1.59,-4.794 3.661,-6.538c2.179,-1.851 4.794,-2.919 7.844,-3.203c3.05,-0.26 6.101,-0.391 9.151,-0.391l11.603,-0c3.812,-0 7.735,0.163 11.766,0.49c4.031,0.326 7.463,1.58 10.296,3.758c2.505,1.852 4.03,4.304 4.576,7.354c0.544,3.051 0.816,6.155 0.816,9.315l0,40.855l10.623,0l0,13.073Zm89.062,-52.457l0,-3.758c0,-0.873 -0.076,-1.689 -0.228,-2.451c-0.175,-0.764 -0.643,-1.418 -1.407,-1.962c-0.871,-0.544 -1.905,-0.871 -3.104,-0.98c-1.198,-0.109 -2.396,-0.163 -3.595,-0.163l-12.093,-0l0,48.698l11.766,0l0,13.073l-37.912,-0l-0,-13.073l10.621,0l-0,-48.698l-10.621,-0l-0,-13.074l38.239,-0c3.377,-0 6.808,0.163 10.296,0.49c3.486,0.326 6.427,1.417 8.824,3.268c2.18,1.744 3.518,3.943 4.02,6.602c0.48,2.68 0.72,5.437 0.72,8.27l-0,3.758l-15.526,0Zm81.056,-9.314l0,38.565c0,1.418 0.075,2.887 0.228,4.413c0.176,1.525 0.643,2.779 1.406,3.759c0.653,0.871 1.526,1.417 2.614,1.634c1.091,0.218 2.234,0.327 3.432,0.327l14.054,0l-0,13.073l-14.054,-0c-3.377,-0 -6.732,-0.196 -10.066,-0.587c-3.313,-0.371 -6.111,-1.7 -8.4,-3.988c-2.288,-2.288 -3.649,-5.121 -4.086,-8.498c-0.435,-3.377 -0.653,-6.756 -0.653,-10.133l-0,-38.565l-11.766,-0l-0,-13.074l11.766,-0l-0,-23.859l15.525,0l0,23.859l20.591,-0l-0,13.074l-20.591,-0Zm101.482,46.737l18.63,-46.737l-8.498,-0l0,-13.074l32.03,-0l-0,13.074l-8.498,-0l-33.664,84.649l9.642,-0l0,13.074l-36.279,0l0,-13.074l11.603,-0l7.518,-18.955l-25.984,-65.694l-8.497,-0l-0,-13.074l32.029,-0l0,13.074l-8.498,-0l18.466,46.737Zm136.129,-3.432l-0,-7.028c-0,-2.615 -1.091,-4.161 -3.27,-4.641c-2.178,-0.5 -4.575,-0.752 -7.189,-0.752l-14.055,0c-3.594,0 -7.332,-0.163 -11.211,-0.49c-3.857,-0.326 -7.092,-1.415 -9.707,-3.268c-2.287,-1.524 -3.736,-3.649 -4.347,-6.373c-0.587,-2.723 -0.881,-5.501 -0.881,-8.334l-0,-7.028c-0,-2.833 0.294,-5.611 0.881,-8.333c0.611,-2.723 2.06,-4.848 4.347,-6.374c2.615,-1.851 5.85,-2.942 9.707,-3.268c3.879,-0.327 7.617,-0.49 11.211,-0.49l13.565,-0c3.485,-0 7.08,0.163 10.784,0.49c3.705,0.326 6.81,1.417 9.316,3.268c2.179,1.635 3.562,3.78 4.151,6.439c0.609,2.679 0.915,5.435 0.915,8.268l0,3.596l-15.525,0l-0,-3.596c-0,-0.871 -0.142,-1.688 -0.426,-2.45c-0.26,-0.764 -0.772,-1.362 -1.536,-1.798c-0.98,-0.544 -2.178,-0.871 -3.595,-0.98c-1.415,-0.109 -2.778,-0.163 -4.084,-0.163l-13.565,-0c-1.526,-0 -3.05,0.054 -4.576,0.163c-1.524,0.109 -2.832,0.436 -3.921,0.98c-0.762,0.436 -1.286,1.034 -1.569,1.798c-0.262,0.762 -0.393,1.579 -0.393,2.45l0,7.028c0,0.871 0.131,1.689 0.393,2.451c0.283,0.763 0.807,1.361 1.569,1.797c1.089,0.546 2.397,0.873 3.921,0.982c1.526,0.108 3.05,0.163 4.576,0.163l14.055,-0c3.594,-0 7.298,0.163 11.112,0.49c3.813,0.326 7.026,1.417 9.641,3.268c2.288,1.526 3.726,3.649 4.314,6.373c0.611,2.724 0.916,5.502 0.916,8.334l-0,7.028c-0,2.833 -0.305,5.611 -0.916,8.335c-0.588,2.723 -2.026,4.848 -4.314,6.372c-2.615,1.853 -5.828,2.942 -9.641,3.269c-3.814,0.326 -7.518,0.49 -11.112,0.49l-14.055,-0c-3.594,-0 -7.332,-0.164 -11.211,-0.49c-3.857,-0.327 -7.092,-1.416 -9.707,-3.269c-2.287,-1.524 -3.736,-3.649 -4.347,-6.372c-0.587,-2.724 -0.881,-5.502 -0.881,-8.335l-0,-3.431l15.687,-0l0,3.431c0,0.871 0.131,1.688 0.393,2.452c0.283,0.762 0.807,1.361 1.569,1.796c1.089,0.546 2.397,0.873 3.921,0.982c1.526,0.109 3.05,0.163 4.576,0.163l14.055,0c2.614,0 5.011,-0.252 7.189,-0.752c2.179,-0.48 3.27,-2.026 3.27,-4.641Z" style="fill:#a81106;fill-rule:nonzero;"/><path d="M491.339,300.613l-0,3.562c-0,3.694 0.327,6.244 2.19,7.877c0.653,0.655 1.536,1.079 2.679,1.373c1.111,0.326 2.058,0.49 2.877,0.524c0.752,0.032 1.863,0.064 3.3,0.064l7.976,0c1.437,0 2.548,-0.032 3.3,-0.064c0.784,-0.034 1.732,-0.198 2.843,-0.524c1.113,-0.294 1.994,-0.718 2.649,-1.373c1.863,-1.633 2.254,-4.248 2.254,-7.877l-0,-7.451c-0,-3.367 -0.752,-5.654 -2.254,-6.831c-0.752,-0.588 -1.667,-0.98 -2.714,-1.209c0.916,-0.196 1.831,-0.589 2.714,-1.21c1.502,-1.079 2.254,-3.202 2.254,-6.373l-0,-6.635c-0,-3.399 -0.391,-5.784 -2.254,-7.354c-0.655,-0.587 -1.536,-1.045 -2.649,-1.339c-1.111,-0.295 -2.059,-0.458 -2.843,-0.49c-0.752,-0.067 -1.863,-0.067 -3.3,-0.067l-7.976,0c-1.437,0 -2.548,0 -3.3,0.067c-0.819,0.032 -1.766,0.195 -2.877,0.49c-1.143,0.294 -2.026,0.752 -2.679,1.339c-0.655,0.556 -1.178,1.243 -1.504,2.125c-0.327,0.915 -0.557,1.731 -0.589,2.419c-0.065,0.719 -0.097,1.699 -0.097,2.81l-0,3.171l5.131,0l-0,-3.171c-0,-1.83 0.391,-3.072 1.176,-3.758c0.36,-0.327 0.85,-0.556 1.471,-0.72c0.621,-0.13 1.079,-0.195 1.504,-0.227l11.536,-0c0.752,0.032 2.224,0.326 2.942,0.947c0.784,0.686 1.177,1.928 1.177,3.758l-0,6.635c-0,2.157 -0.393,3.595 -1.177,4.282c-0.359,0.327 -0.849,0.555 -1.47,0.718c-0.621,0.197 -1.079,0.262 -1.472,0.262c-0.391,0.032 -0.98,0.032 -1.796,0.032l-6.996,0l0,4.544l7.583,0c2.028,0 3.399,0.359 4.151,1.111c0.393,0.392 0.687,0.849 0.85,1.438c0.196,0.621 0.261,1.111 0.295,1.471c0.032,0.392 0.032,0.98 0.032,1.765l-0,7.451c-0,2.06 -0.131,3.335 -1.177,4.25c-0.785,0.72 -2.385,1.078 -4.738,1.078l-7.976,0c-2.353,0 -3.955,-0.358 -4.739,-1.078c-0.327,-0.327 -0.587,-0.752 -0.785,-1.274c-0.359,-1.014 -0.391,-1.603 -0.391,-2.976l-0,-3.562l-5.131,-0Zm60.071,13.4l28.927,0c2.711,0 5.032,-0.227 6.895,-0.653c1.863,-0.425 3.399,-1.373 4.608,-2.81c1.373,-1.603 2.222,-3.661 2.549,-6.44c0.131,-1.405 0.262,-2.582 0.294,-3.497c0.034,-0.916 0.034,-2.157 0.034,-3.823l0,-16.899c0,-1.667 0,-2.941 -0.034,-3.856c-0.032,-0.916 -0.163,-2.059 -0.294,-3.464c-0.327,-2.778 -1.176,-4.838 -2.549,-6.472c-1.209,-1.405 -2.745,-2.386 -4.608,-2.81c-1.863,-0.393 -4.184,-0.621 -6.895,-0.621l-28.927,0l0,4.51l6.014,0l0,42.325l-6.014,0l0,4.51Zm11.701,-4.51l0,-42.325l17.226,0c3.463,0 5.784,0.849 6.927,2.583c0.556,0.784 0.949,1.828 1.21,3.104c0.262,1.275 0.457,2.353 0.49,3.236c0.034,0.915 0.034,2.157 0.034,3.79l-0,16.899c-0,1.633 -0,2.875 -0.034,3.758c-0.033,0.915 -0.228,1.962 -0.49,3.268c-0.261,1.274 -0.654,2.321 -1.21,3.105c-1.143,1.732 -3.464,2.582 -6.927,2.582l-17.226,0Zm105.568,-5.262l0,2.091c0,3.04 0.72,5.099 2.157,6.178c0.621,0.49 1.504,0.818 2.551,1.014c1.078,0.262 1.959,0.391 2.745,0.425c0.718,0.032 1.732,0.064 3.105,0.064l7.288,0c1.373,0 2.385,-0.032 3.17,-0.064c0.752,-0.034 1.667,-0.163 2.713,-0.425c1.079,-0.196 1.928,-0.524 2.549,-1.014c1.405,-1.013 2.125,-3.073 2.125,-6.178l-0,-4.151c-0,-3.038 -0.72,-5.098 -2.125,-6.111c-0.621,-0.49 -1.47,-0.816 -2.549,-1.078c-1.046,-0.196 -1.961,-0.359 -2.713,-0.393c-0.785,-0.033 -1.797,-0.033 -3.17,-0.033l-7.288,0c-2.092,0 -3.53,-0.227 -4.347,-0.62c-0.752,-0.426 -1.112,-1.242 -1.112,-2.549l-0,-4.151c-0,-1.308 0.36,-2.157 1.112,-2.55c0.785,-0.424 2.222,-0.589 4.347,-0.589l7.093,0c2.026,0 3.365,0.165 4.052,0.589c0.718,0.393 1.046,1.276 1.046,2.55l0,2.091l5.099,-0l-0,-2.091c-0,-3.072 -0.655,-5.131 -2.028,-6.145c-0.621,-0.49 -1.47,-0.817 -2.484,-1.079c-1.044,-0.227 -1.927,-0.358 -2.647,-0.393c-0.752,-0.032 -1.764,-0.032 -3.038,-0.032l-7.093,0c-1.373,0 -2.387,0 -3.105,0.032c-0.786,0.035 -1.667,0.166 -2.745,0.393c-1.047,0.262 -1.93,0.589 -2.551,1.079c-1.437,1.046 -2.157,3.105 -2.157,6.145l0,4.151c0,3.038 0.72,5.065 2.157,6.143c0.621,0.458 1.504,0.785 2.551,1.014c1.078,0.262 1.959,0.359 2.745,0.426c0.718,0.032 1.732,0.064 3.105,0.064l7.288,0c2.091,0 3.563,0.23 4.379,0.621c0.688,0.359 1.079,1.21 1.079,2.516l-0,4.151c-0,1.373 -0.391,2.224 -1.079,2.583c-0.752,0.393 -2.189,0.588 -4.379,0.588l-7.288,0c-2.125,0 -3.562,-0.195 -4.347,-0.588c-0.752,-0.393 -1.112,-1.242 -1.112,-2.583l-0,-2.091l-5.099,0Zm60.105,-12.55l0,10.198c0,1.502 0.034,2.679 0.099,3.594c0.032,0.948 0.262,1.994 0.621,3.17c0.327,1.209 0.849,2.157 1.504,2.941c1.044,1.145 2.385,1.799 4.085,2.093c1.699,0.294 2.713,0.326 4.739,0.326l7.877,0c4.151,0 6.831,-0.358 8.792,-2.419c0.653,-0.784 1.176,-1.732 1.536,-2.941c0.327,-1.208 0.555,-2.222 0.587,-3.17c0.034,-0.883 0.067,-2.092 0.067,-3.594l-0,-10.198c-0,-1.504 -0.033,-2.713 -0.067,-3.628c-0.032,-0.883 -0.26,-1.896 -0.587,-3.105c-0.36,-1.242 -0.883,-2.19 -1.536,-2.942c-1.046,-1.143 -2.354,-1.798 -4.054,-2.092c-0.849,-0.164 -1.601,-0.26 -2.222,-0.295c-0.653,-0.032 -1.504,-0.032 -2.516,-0.032l-7.877,0c-2.026,0 -3.04,0.032 -4.739,0.327c-1.7,0.294 -3.041,0.949 -4.085,2.092c-0.655,0.752 -1.177,1.7 -1.504,2.877c-0.359,1.208 -0.589,2.254 -0.621,3.17c-0.065,0.915 -0.099,2.124 -0.099,3.628Zm5.099,10.198l0,-10.198c0,-0.949 0,-1.733 0.034,-2.255c0.032,-1.111 0.458,-2.91 1.176,-3.825c0.784,-1.012 2.352,-1.504 4.739,-1.504l7.877,0c2.385,0 3.988,0.492 4.738,1.504c0.786,0.982 1.145,2.778 1.145,5.393l0,11.603c0,2.582 -0.359,4.38 -1.145,5.393c-0.75,0.979 -2.353,1.503 -4.738,1.503l-7.877,0c-2.387,0 -3.955,-0.524 -4.739,-1.503c-0.359,-0.49 -0.654,-1.111 -0.849,-1.863c-0.164,-0.785 -0.295,-1.438 -0.327,-1.994c-0.034,-0.555 -0.034,-1.274 -0.034,-2.254Zm55.662,12.124l14.903,0l-0,-4.51l-4.869,0l-0,-50.595l-10.034,0l-0,4.512l4.901,-0l-0,46.083l-4.901,0l-0,4.51Zm44.057,-29.906l4.869,0l-0,18.5c-0,1.373 0.032,2.483 0.131,3.334c0.032,0.849 0.195,1.831 0.556,2.942c0.294,1.143 0.718,2.026 1.339,2.711c0.915,1.047 2.157,1.799 3.792,2.093c1.601,0.294 2.583,0.326 4.478,0.326l22.257,0l0,-4.51l-4.903,0l0,-29.906l-9.967,0l-0,4.51l4.869,0l-0,25.396l-12.256,0c-2.026,0 -3.432,-0.524 -4.119,-1.503c-0.686,-1.013 -1.079,-3.041 -1.079,-6.111l0,-22.292l-9.967,0l-0,4.51Zm66.085,0l5.459,0l0,19.84c0,1.307 0.033,2.321 0.065,3.006c0.032,0.72 0.163,1.603 0.458,2.583c0.294,0.98 0.752,1.83 1.34,2.451c0.555,0.621 1.274,1.079 2.19,1.373c0.883,0.327 1.699,0.522 2.385,0.555c0.719,0.066 1.667,0.098 2.812,0.098l6.798,0l0,-4.51l-6.798,0c-1.667,0 -2.778,-0.358 -3.302,-1.144c-0.555,-0.785 -0.849,-2.222 -0.849,-4.412l-0,-19.84l9.445,0l0,-4.51l-9.445,0l-0,-10.981l-5.099,-0l0,10.981l-5.459,0l-0,4.51Zm54.059,-12.419l6.407,0l-0,-6.373l-6.407,0l-0,6.373Zm-4.216,42.325l14.905,0l-0,-4.51l-4.871,0l0,-29.906l-10.034,0l0,4.51l4.903,0l0,25.396l-4.903,0l0,4.51Zm45.692,-22.322l0,10.198c0,1.502 0.033,2.679 0.131,3.594c0.033,0.948 0.261,1.994 0.621,3.17c0.327,1.209 0.849,2.157 1.503,2.941c1.014,1.145 2.386,1.799 4.054,2.093c1.699,0.294 2.744,0.326 4.738,0.326l7.909,0c4.151,0 6.832,-0.358 8.76,-2.419c0.653,-0.784 1.177,-1.732 1.536,-2.941c0.326,-1.208 0.556,-2.222 0.588,-3.17c0.033,-0.883 0.099,-2.092 0.099,-3.594l0,-10.198c0,-1.504 -0.066,-2.713 -0.099,-3.628c-0.032,-0.883 -0.262,-1.896 -0.588,-3.105c-0.359,-1.242 -0.883,-2.19 -1.536,-2.942c-1.013,-1.143 -2.353,-1.798 -4.021,-2.092c-0.848,-0.164 -1.633,-0.26 -2.254,-0.295c-0.655,-0.032 -1.504,-0.032 -2.485,-0.032l-7.909,0c-1.994,0 -3.039,0.032 -4.738,0.327c-1.668,0.294 -3.04,0.949 -4.054,2.092c-0.654,0.752 -1.176,1.7 -1.503,2.877c-0.36,1.208 -0.588,2.254 -0.621,3.17c-0.098,0.915 -0.131,2.124 -0.131,3.628Zm5.099,10.198l0,-10.198c0,-0.949 0,-1.733 0.065,-2.255c0.032,-1.111 0.425,-2.91 1.145,-3.825c0.784,-1.012 2.353,-1.504 4.738,-1.504l7.909,0c2.387,0 3.955,0.492 4.739,1.504c0.752,0.982 1.111,2.778 1.111,5.393l0,11.603c0,2.582 -0.359,4.38 -1.111,5.393c-0.784,0.979 -2.352,1.503 -4.739,1.503l-7.909,0c-2.385,0 -3.954,-0.524 -4.738,-1.503c-0.361,-0.49 -0.655,-1.111 -0.819,-1.863c-0.195,-0.785 -0.294,-1.438 -0.326,-1.994c-0.065,-0.555 -0.065,-1.274 -0.065,-2.254Zm55.692,12.124l15.427,0l0,-4.51l-5.425,0l-0,-25.396l12.713,0c2.158,0 3.597,0.492 4.347,1.504c0.752,0.982 1.113,3.04 1.113,6.08l-0,17.812l-5.393,0l-0,4.51l15.427,0l-0,-4.51l-4.936,0l0,-17.812c0,-1.57 -0.034,-2.778 -0.066,-3.628c-0.032,-0.849 -0.228,-1.896 -0.555,-3.105c-0.328,-1.242 -0.784,-2.19 -1.471,-2.942c-0.98,-1.078 -2.222,-1.798 -3.889,-2.092c-1.635,-0.295 -2.68,-0.327 -4.577,-0.327l-22.715,0l0,4.51l4.871,0l-0,25.396l-4.871,0l0,4.51Zm68.343,-9.772l-0,2.091c-0,3.04 0.718,5.099 2.157,6.178c0.621,0.49 1.502,0.818 2.581,1.014c1.046,0.262 1.929,0.391 2.713,0.425c0.718,0.032 1.765,0.064 3.105,0.064l7.321,0c1.34,0 2.387,-0.032 3.138,-0.064c0.751,-0.034 1.666,-0.163 2.712,-0.425c1.079,-0.196 1.93,-0.524 2.55,-1.014c1.438,-1.013 2.124,-3.073 2.124,-6.178l-0,-4.151c-0,-3.038 -0.686,-5.098 -2.124,-6.111c-0.62,-0.49 -1.471,-0.816 -2.55,-1.078c-1.046,-0.196 -1.961,-0.359 -2.712,-0.393c-0.751,-0.033 -1.798,-0.033 -3.138,-0.033l-7.321,0c-2.092,0 -3.53,-0.227 -4.314,-0.62c-0.784,-0.426 -1.143,-1.242 -1.143,-2.549l-0,-4.151c-0,-1.308 0.359,-2.157 1.143,-2.55c0.752,-0.424 2.189,-0.589 4.314,-0.589l7.093,0c2.026,0 3.366,0.165 4.084,0.589c0.688,0.393 1.014,1.276 1.014,2.55l0,2.091l5.099,-0l0,-2.091c0,-3.072 -0.653,-5.131 -2.026,-6.145c-0.621,-0.49 -1.472,-0.817 -2.484,-1.079c-1.014,-0.227 -1.897,-0.358 -2.649,-0.393c-0.718,-0.032 -1.764,-0.032 -3.038,-0.032l-7.093,0c-1.34,0 -2.387,0 -3.105,0.032c-0.784,0.035 -1.667,0.166 -2.713,0.393c-1.079,0.262 -1.96,0.589 -2.581,1.079c-1.439,1.046 -2.157,3.105 -2.157,6.145l-0,4.151c-0,3.038 0.718,5.065 2.157,6.143c0.621,0.458 1.502,0.785 2.581,1.014c1.046,0.262 1.929,0.359 2.713,0.426c0.718,0.032 1.765,0.064 3.105,0.064l7.321,0c2.092,0 3.562,0.23 4.346,0.621c0.72,0.359 1.079,1.21 1.079,2.516l-0,4.151c-0,1.373 -0.359,2.224 -1.079,2.583c-0.75,0.393 -2.189,0.588 -4.346,0.588l-7.321,0c-2.125,0 -3.562,-0.195 -4.314,-0.588c-0.784,-0.393 -1.143,-1.242 -1.143,-2.583l-0,-2.091l-5.099,0Z" style="fill:#a81106;fill-rule:nonzero;"/><path d="M41.669,465.86l2235.98,-0" style="fill:none;stroke:#a81106;stroke-width:14.58px;"/><rect x="-29.525" y="-22.676" width="2430.27" height="601.498" style="fill-opacity:0.22;"/><defs><radialGradient id="_Radial1" cx="0" cy="0" r="1" gradientUnits="userSpaceOnUse" gradientTransform="matrix(70.2503,53.8311,-70.2503,53.8311,224.596,163.583)"><stop offset="0" style="stop-color:#fff;stop-opacity:1"/><stop offset="0.2" style="stop-color:#f85b5f;stop-opacity:1"/><stop offset="0.3" style="stop-color:#ef3b3e;stop-opacity:1"/><stop offset="0.8" style="stop-color:#a81106;stop-opacity:1"/><stop offset="1" style="stop-color:#a81106;stop-opacity:1"/></radialGradient><linearGradient id="_Linear2" x1="0" y1="0" x2="1" y2="0" gradientUnits="userSpaceOnUse" gradientTransform="matrix(245.457,0,0,245.457,66.6986,191.273)"><stop offset="0" style="stop-color:#cdcdcd;stop-opacity:1"/><stop offset="1" style="stop-color:#878787;stop-opacity:1"/></linearGradient><linearGradient id="_Linear3" x1="0" y1="0" x2="1" y2="0" gradientUnits="userSpaceOnUse" gradientTransform="matrix(119.798,0,0,119.798,68.1123,224.253)"><stop offset="0" style="stop-color:#cdcdcd;stop-opacity:1"/><stop offset="1" style="stop-color:#878787;stop-opacity:1"/></linearGradient></defs></svg>