<?xml version="1.0" encoding="UTF-8" standalone="no"?><!DOCTYPE svg PUBLIC "-//W3C//DTD SVG 1.1//EN" "http://www.w3.org/Graphics/SVG/1.1/DTD/svg11.dtd"><svg width="100%" height="100%" viewBox="0 0 1024 1024" version="1.1" xmlns="http://www.w3.org/2000/svg" xmlns:xlink="http://www.w3.org/1999/xlink" xml:space="preserve" xmlns:serif="http://www.serif.com/" style="fill-rule:evenodd;clip-rule:evenodd;stroke-linejoin:round;stroke-miterlimit:2;"><path d="M970.557,360.261c-23.271,-46.858 -209.492,-127.428 -429.466,-117.205c45.551,-144.128 117.892,-205.302 117.892,-205.302c-237.534,-34.922 -526.303,154.683 -642.687,465.706l186.817,-48.171c146.726,-31.4 350.018,-60.054 496.358,-21.691c255.068,66.86 -542.287,424.598 -542.287,424.598c-0,0 173.16,73.512 432.39,-27.007c373.363,-144.773 422.801,-386.73 380.983,-470.928Z" style="fill:#4c4343;fill-rule:nonzero;"/><path d="M512.303,192.437c176.268,-0 319.375,143.107 319.375,319.377c0,176.268 -143.107,319.375 -319.375,319.375c-176.267,0 -319.377,-143.107 -319.377,-319.375c-0,-176.27 143.11,-319.377 319.377,-319.377Z" style="fill:url(#_Radial1);"/><path d="M534.406,524.216c-33.447,-82.996 -271.738,-51.407 -340.752,-33.772c-0.467,7.066 -0.728,14.187 -0.728,21.37c-0,99.957 45.935,189.179 117.83,247.741c54.045,-23.861 257.892,-150.363 223.65,-235.339Z" style="fill:#a81106;fill-rule:nonzero;"/><path d="M378.171,349.434c86.511,-26.033 172.147,-39.793 247.657,-39.793c66.22,0 115.917,9.512 151.965,24.606c-57.305,-85.513 -154.82,-141.81 -265.49,-141.81c-143.733,-0 -265.28,94.955 -305.359,225.554c53.451,-27.198 111.507,-50.589 171.227,-68.557Z" style="fill:#a81106;fill-rule:nonzero;"/><path d="M831.664,513.094c-22.809,38.226 -60.017,78.328 -109.301,116.835c-91.492,71.481 -212.597,129.542 -341.004,163.493c-4.432,1.171 -8.858,2.303 -13.284,3.411c43.325,21.966 92.326,34.356 144.228,34.356c175.959,0 318.669,-142.297 319.361,-318.095Z" style="fill:#a81106;fill-rule:nonzero;"/><path d="M975.829,334.704c-0,-0 -118.574,-131.66 -338.779,-142.204c-387.501,-18.555 -259.606,-88.712 -189.443,-116.871c87.644,-35.177 210.858,-37.842 211.376,-37.875c-46.358,-14.327 -95.615,-22.053 -146.68,-22.053c-271.203,0 -491.542,217.621 -496.007,487.759c84.401,-75.534 208.635,-144.543 351.768,-187.612c285.04,-85.769 524.669,-33.531 524.669,116.412c-0,146.27 -229.269,322.855 -502.411,395.068c-84.356,22.3 -163.771,32.148 -233.138,30.868c90.095,92.362 215.898,149.728 355.119,149.728c273.994,0 496.113,-222.116 496.113,-496.11c0,-62.404 -11.556,-122.101 -32.587,-177.11Z" style="fill:url(#_Linear2);fill-rule:nonzero;"/><path d="M128.288,546.154c-37.812,12.541 -73.518,26.587 -106.278,41.515c11.492,74.897 39.754,144.262 80.801,204.176c31.514,-7.233 64.362,-16.4 97.843,-27.502c187.67,-62.246 323.606,-161.549 303.623,-221.8c-19.985,-60.25 -188.321,-58.634 -375.989,3.611Z" style="fill:url(#_Linear3);fill-rule:nonzero;"/><defs><radialGradient id="_Radial1" cx="0" cy="0" r="1" gradientUnits="userSpaceOnUse" gradientTransform="matrix(283.947,217.582,-283.947,217.582,654.509,399.892)"><stop offset="0" style="stop-color:#fff;stop-opacity:1"/><stop offset="0.2" style="stop-color:#f85b5f;stop-opacity:1"/><stop offset="0.3" style="stop-color:#ef3b3e;stop-opacity:1"/><stop offset="0.8" style="stop-color:#a81106;stop-opacity:1"/><stop offset="1" style="stop-color:#a81106;stop-opacity:1"/></radialGradient><linearGradient id="_Linear2" x1="0" y1="0" x2="1" y2="0" gradientUnits="userSpaceOnUse" gradientTransform="matrix(992.12,0,0,992.12,16.2962,511.814)"><stop offset="0" style="stop-color:#cdcdcd;stop-opacity:1"/><stop offset="1" style="stop-color:#878787;stop-opacity:1"/></linearGradient><linearGradient id="_Linear3" x1="0" y1="0" x2="1" y2="0" gradientUnits="userSpaceOnUse" gradientTransform="matrix(484.217,0,0,484.217,22.0103,645.118)"><stop offset="0" style="stop-color:#cdcdcd;stop-opacity:1"/><stop offset="1" style="stop-color:#878787;stop-opacity:1"/></linearGradient></defs></svg>