<?xml version="1.0" encoding="UTF-8" standalone="no"?><!DOCTYPE svg PUBLIC "-//W3C//DTD SVG 1.1//EN" "http://www.w3.org/Graphics/SVG/1.1/DTD/svg11.dtd"><svg width="100%" height="100%" viewBox="0 0 560 125" version="1.1" xmlns="http://www.w3.org/2000/svg" xmlns:xlink="http://www.w3.org/1999/xlink" xml:space="preserve" xmlns:serif="http://www.serif.com/" style="fill-rule:evenodd;clip-rule:evenodd;stroke-linejoin:round;stroke-miterlimit:2;"><path d="M560,32.903l0,59.194c0,18.16 -14.743,32.903 -32.903,32.903l-494.194,0c-18.16,0 -32.903,-14.743 -32.903,-32.903l0,-59.194c0,-18.16 14.743,-32.903 32.903,-32.903l494.194,-0c18.16,-0 32.903,14.743 32.903,32.903Z" style="fill:#fff;"/><path d="M114.626,46.301c-2.487,-5.009 -22.392,-13.621 -45.905,-12.528c4.869,-15.406 12.602,-21.945 12.602,-21.945c-25.39,-3.732 -56.256,16.534 -68.696,49.779l19.968,-5.149c15.684,-3.356 37.413,-6.419 53.055,-2.318c27.264,7.146 -57.964,45.384 -57.964,45.384c0,0 18.509,7.858 46.218,-2.886c39.908,-15.475 45.192,-41.337 40.722,-50.337Z" style="fill:#4c4343;fill-rule:nonzero;"/><path d="M65.644,28.362c18.841,0 34.138,15.297 34.138,34.138c-0,18.841 -15.297,34.138 -34.138,34.138c-18.841,-0 -34.138,-15.297 -34.138,-34.138c0,-18.841 15.297,-34.138 34.138,-34.138Z" style="fill:url(#_Radial1);"/><path d="M68.007,63.826c-3.575,-8.872 -29.046,-5.495 -36.423,-3.61c-0.05,0.755 -0.078,1.516 -0.078,2.284c0,10.684 4.91,20.221 12.595,26.481c5.777,-2.551 27.566,-16.072 23.906,-25.155Z" style="fill:#a81106;fill-rule:nonzero;"/><path d="M51.307,45.144c9.247,-2.783 18.401,-4.254 26.472,-4.254c7.078,0 12.39,1.017 16.243,2.63c-6.125,-9.14 -16.548,-15.158 -28.378,-15.158c-15.363,0 -28.355,10.15 -32.639,24.11c5.713,-2.908 11.919,-5.408 18.302,-7.328Z" style="fill:#a81106;fill-rule:nonzero;"/><path d="M99.78,62.637c-2.438,4.086 -6.415,8.372 -11.683,12.488c-9.779,7.641 -22.724,13.847 -36.449,17.476c-0.474,0.125 -0.947,0.246 -1.42,0.364c4.631,2.348 9.869,3.673 15.416,3.673c18.808,-0 34.062,-15.21 34.136,-34.001Z" style="fill:#a81106;fill-rule:nonzero;"/><path d="M115.19,43.569c-0,0 -12.674,-14.073 -36.212,-15.2c-41.419,-1.983 -27.749,-9.482 -20.249,-12.492c9.368,-3.76 22.538,-4.045 22.594,-4.049c-4.955,-1.531 -10.22,-2.357 -15.679,-2.357c-28.988,0 -52.54,23.262 -53.017,52.136c9.021,-8.074 22.3,-15.45 37.6,-20.053c30.467,-9.168 56.081,-3.584 56.081,12.443c-0,15.634 -24.506,34.509 -53.702,42.228c-9.017,2.384 -17.505,3.436 -24.92,3.299c9.63,9.873 23.077,16.005 37.958,16.005c29.287,-0 53.029,-23.742 53.029,-53.029c0,-6.67 -1.235,-13.051 -3.483,-18.931Z" style="fill:url(#_Linear2);fill-rule:nonzero;"/><path d="M24.597,66.171c-4.041,1.34 -7.858,2.842 -11.359,4.437c1.228,8.006 4.249,15.42 8.636,21.824c3.369,-0.773 6.88,-1.753 10.458,-2.939c20.06,-6.654 34.59,-17.268 32.454,-23.708c-2.136,-6.44 -20.129,-6.268 -40.189,0.386Z" style="fill:url(#_Linear3);fill-rule:nonzero;"/><path d="M200.295,47.244l-10.661,-0c-0.424,-0 -0.862,0.023 -1.314,0.07c-0.442,0.047 -0.828,0.189 -1.157,0.424c-0.282,0.236 -0.457,0.528 -0.523,0.875c-0.075,0.358 -0.113,0.726 -0.113,1.102l-0,3.389c-0,0.376 0.038,0.739 0.113,1.087c0.066,0.358 0.241,0.654 0.523,0.89c0.329,0.235 0.715,0.377 1.157,0.424c0.452,0.047 0.89,0.07 1.314,0.07l10.661,0l0,-8.331Zm11.296,13.979l-21.957,-0c-1.365,-0 -2.763,-0.071 -4.194,-0.212c-1.441,-0.141 -2.655,-0.611 -3.643,-1.412c-0.941,-0.8 -1.507,-1.779 -1.695,-2.937c-0.188,-1.148 -0.282,-2.334 -0.282,-3.558l0,-3.389c0,-1.224 0.094,-2.415 0.282,-3.573c0.188,-1.148 0.754,-2.123 1.695,-2.922c0.988,-0.801 2.202,-1.271 3.643,-1.412c1.431,-0.142 2.829,-0.213 4.194,-0.213l10.661,0l0,-3.671c0,-0.517 -0.062,-1.021 -0.184,-1.51c-0.113,-0.499 -0.381,-0.89 -0.804,-1.173c-0.519,-0.376 -1.163,-0.588 -1.935,-0.635c-0.781,-0.047 -1.525,-0.07 -2.232,-0.07l-5.012,-0c-0.377,-0 -0.744,0.008 -1.101,0.028c-0.349,0.028 -0.64,0.16 -0.876,0.395c-0.236,0.235 -0.377,0.494 -0.424,0.777c-0.047,0.282 -0.07,0.588 -0.07,0.917l-0,1.412l-6.707,0l-0,-1.412c-0,-1.129 0.084,-2.259 0.254,-3.388c0.16,-1.13 0.687,-2.071 1.581,-2.825c0.942,-0.799 2.071,-1.261 3.389,-1.384c1.318,-0.112 2.636,-0.169 3.954,-0.169l5.012,0c1.648,0 3.343,0.071 5.085,0.212c1.741,0.141 3.223,0.683 4.447,1.623c1.083,0.801 1.742,1.86 1.977,3.178c0.235,1.318 0.353,2.659 0.353,4.024l-0,17.651l4.589,0l0,5.648Zm41.02,-26.687l-10.59,-0c-0.659,-0 -1.341,0.07 -2.047,0.211c-0.707,0.141 -1.248,0.494 -1.624,1.059c-0.377,0.565 -0.612,1.224 -0.706,1.977c-0.095,0.753 -0.142,1.529 -0.142,2.33l0,9.884c0,0.801 0.047,1.577 0.142,2.33c0.094,0.754 0.329,1.412 0.706,1.977c0.376,0.565 0.917,0.918 1.624,1.059c0.706,0.142 1.388,0.212 2.047,0.212l10.59,0l0,-21.039Zm11.297,26.687l-21.887,-0c-1.648,-0 -3.281,-0.094 -4.9,-0.282c-1.628,-0.188 -3.008,-0.895 -4.137,-2.119c-1.13,-1.223 -1.789,-2.696 -1.977,-4.419c-0.188,-1.713 -0.283,-3.417 -0.283,-5.111l0,-8.473c0,-1.695 0.095,-3.398 0.283,-5.112c0.188,-1.723 0.847,-3.196 1.977,-4.419c1.129,-1.224 2.509,-1.93 4.137,-2.119c1.619,-0.188 3.252,-0.282 4.9,-0.282l10.59,0l0,-13.767l-4.589,-0l-0,-5.649l11.297,0l-0,46.104l4.589,0l0,5.648Zm40.102,-13.979l-10.66,-0c-0.425,-0 -0.862,0.023 -1.314,0.07c-0.442,0.047 -0.828,0.189 -1.158,0.424c-0.283,0.236 -0.457,0.528 -0.522,0.875c-0.076,0.358 -0.113,0.726 -0.113,1.102l-0,3.389c-0,0.376 0.037,0.739 0.113,1.087c0.065,0.358 0.239,0.654 0.522,0.89c0.33,0.235 0.716,0.377 1.158,0.424c0.452,0.047 0.889,0.07 1.314,0.07l10.66,0l0,-8.331Zm11.297,13.979l-21.957,-0c-1.365,-0 -2.763,-0.071 -4.194,-0.212c-1.441,-0.141 -2.655,-0.611 -3.644,-1.412c-0.941,-0.8 -1.506,-1.779 -1.694,-2.937c-0.188,-1.148 -0.282,-2.334 -0.282,-3.558l-0,-3.389c-0,-1.224 0.094,-2.415 0.282,-3.573c0.188,-1.148 0.753,-2.123 1.694,-2.922c0.989,-0.801 2.203,-1.271 3.644,-1.412c1.431,-0.142 2.829,-0.213 4.194,-0.213l10.66,0l0,-3.671c0,-0.517 -0.056,-1.021 -0.169,-1.51c-0.123,-0.499 -0.395,-0.89 -0.819,-1.173c-0.518,-0.376 -1.163,-0.588 -1.934,-0.635c-0.782,-0.047 -1.526,-0.07 -2.232,-0.07l-5.013,-0c-0.376,-0 -0.743,0.008 -1.101,0.028c-0.348,0.028 -0.64,0.16 -0.876,0.395c-0.235,0.235 -0.376,0.494 -0.423,0.777c-0.047,0.282 -0.071,0.588 -0.071,0.917l0,1.412l-6.707,0l0,-1.412c0,-1.129 0.085,-2.259 0.254,-3.388c0.16,-1.13 0.687,-2.071 1.582,-2.825c0.941,-0.799 2.071,-1.261 3.389,-1.384c1.318,-0.112 2.636,-0.169 3.953,-0.169l5.013,0c1.647,0 3.342,0.071 5.083,0.212c1.742,0.141 3.225,0.683 4.449,1.623c1.082,0.801 1.741,1.86 1.977,3.178c0.235,1.318 0.353,2.659 0.353,4.024l-0,17.651l4.589,0l0,5.648Zm38.478,-22.663l0,-1.624c0,-0.377 -0.033,-0.73 -0.098,-1.059c-0.076,-0.33 -0.278,-0.612 -0.608,-0.847c-0.376,-0.236 -0.823,-0.377 -1.342,-0.424c-0.517,-0.047 -1.034,-0.07 -1.553,-0.07l-5.224,-0l0,21.039l5.083,0l0,5.648l-16.379,-0l-0,-5.648l4.588,0l0,-21.039l-4.588,-0l-0,-5.649l16.52,0c1.459,0 2.942,0.071 4.449,0.212c1.506,0.141 2.776,0.612 3.812,1.412c0.942,0.753 1.52,1.704 1.737,2.852c0.207,1.158 0.311,2.349 0.311,3.573l-0,1.624l-6.708,-0Zm35.019,-4.024l0,16.661c0,0.613 0.033,1.248 0.099,1.907c0.076,0.659 0.278,1.2 0.607,1.624c0.282,0.376 0.659,0.612 1.13,0.706c0.471,0.094 0.965,0.141 1.482,0.141l6.072,0l0,5.648l-6.072,-0c-1.459,-0 -2.908,-0.085 -4.349,-0.254c-1.431,-0.16 -2.64,-0.734 -3.628,-1.722c-0.989,-0.989 -1.577,-2.213 -1.766,-3.672c-0.188,-1.459 -0.282,-2.919 -0.282,-4.378l-0,-16.661l-5.083,-0l-0,-5.649l5.083,0l-0,-10.308l6.707,0l0,10.308l8.896,0l0,5.649l-8.896,-0Zm43.844,20.192l8.049,-20.192l-3.671,-0l-0,-5.649l13.838,0l-0,5.649l-3.672,-0l-14.544,36.571l4.166,0l0,5.649l-15.674,-0l0,-5.649l5.013,0l3.248,-8.189l-11.226,-28.382l-3.671,-0l-0,-5.649l13.838,0l-0,5.649l-3.672,-0l7.978,20.192Zm58.813,-1.483l-0,-3.036c-0,-1.13 -0.471,-1.798 -1.413,-2.005c-0.941,-0.216 -1.976,-0.325 -3.106,-0.325l-6.072,-0c-1.553,-0 -3.168,-0.071 -4.843,-0.212c-1.667,-0.141 -3.065,-0.611 -4.194,-1.412c-0.988,-0.658 -1.614,-1.576 -1.878,-2.753c-0.254,-1.177 -0.381,-2.377 -0.381,-3.601l0,-3.036c0,-1.224 0.127,-2.424 0.381,-3.6c0.264,-1.177 0.89,-2.095 1.878,-2.754c1.129,-0.8 2.527,-1.271 4.194,-1.412c1.675,-0.141 3.29,-0.212 4.843,-0.212l5.86,0c1.507,0 3.06,0.071 4.66,0.212c1.601,0.141 2.942,0.612 4.025,1.412c0.941,0.706 1.539,1.633 1.793,2.782c0.263,1.157 0.395,2.348 0.395,3.572l0,1.554l-6.707,-0l-0,-1.554c-0,-0.376 -0.061,-0.729 -0.184,-1.059c-0.112,-0.33 -0.334,-0.588 -0.664,-0.776c-0.423,-0.236 -0.941,-0.377 -1.553,-0.424c-0.611,-0.047 -1.2,-0.07 -1.765,-0.07l-5.86,-0c-0.659,-0 -1.318,0.023 -1.977,0.07c-0.658,0.047 -1.224,0.188 -1.694,0.424c-0.329,0.188 -0.556,0.446 -0.678,0.776c-0.113,0.33 -0.17,0.683 -0.17,1.059l0,3.036c0,0.377 0.057,0.73 0.17,1.059c0.122,0.33 0.349,0.588 0.678,0.777c0.47,0.235 1.036,0.377 1.694,0.424c0.659,0.047 1.318,0.07 1.977,0.07l6.072,0c1.553,0 3.153,0.071 4.801,0.212c1.647,0.141 3.036,0.612 4.165,1.412c0.989,0.659 1.61,1.576 1.864,2.753c0.264,1.177 0.396,2.377 0.396,3.601l-0,3.036c-0,1.224 -0.132,2.424 -0.396,3.601c-0.254,1.177 -0.875,2.095 -1.864,2.753c-1.129,0.801 -2.518,1.271 -4.165,1.412c-1.648,0.141 -3.248,0.212 -4.801,0.212l-6.072,-0c-1.553,-0 -3.168,-0.071 -4.843,-0.212c-1.667,-0.141 -3.065,-0.611 -4.194,-1.412c-0.988,-0.658 -1.614,-1.576 -1.878,-2.753c-0.254,-1.177 -0.381,-2.377 -0.381,-3.601l0,-1.482l6.777,-0l0,1.482c0,0.377 0.057,0.729 0.17,1.059c0.122,0.33 0.349,0.588 0.678,0.777c0.47,0.235 1.036,0.377 1.694,0.424c0.659,0.047 1.318,0.07 1.977,0.07l6.072,0c1.13,0 2.165,-0.109 3.106,-0.325c0.942,-0.207 1.413,-0.875 1.413,-2.005Z" style="fill:#a81106;fill-rule:nonzero;"/><path d="M196.087,109.739l0,1.539c0,1.596 0.141,2.698 0.946,3.403c0.282,0.283 0.664,0.466 1.158,0.593c0.48,0.141 0.889,0.212 1.243,0.227c0.325,0.014 0.804,0.028 1.426,0.028l3.445,-0c0.621,-0 1.101,-0.014 1.426,-0.028c0.339,-0.015 0.748,-0.086 1.228,-0.227c0.481,-0.127 0.862,-0.31 1.145,-0.593c0.805,-0.705 0.974,-1.835 0.974,-3.403l-0,-3.219c-0,-1.455 -0.325,-2.443 -0.974,-2.951c-0.325,-0.255 -0.721,-0.424 -1.173,-0.523c0.396,-0.084 0.791,-0.254 1.173,-0.522c0.649,-0.466 0.974,-1.384 0.974,-2.754l-0,-2.866c-0,-1.469 -0.169,-2.499 -0.974,-3.178c-0.283,-0.253 -0.664,-0.451 -1.145,-0.578c-0.48,-0.127 -0.889,-0.198 -1.228,-0.212c-0.325,-0.028 -0.805,-0.028 -1.426,-0.028l-3.445,-0c-0.622,-0 -1.101,-0 -1.426,0.028c-0.354,0.014 -0.763,0.085 -1.243,0.212c-0.494,0.127 -0.876,0.325 -1.158,0.578c-0.283,0.241 -0.508,0.538 -0.65,0.918c-0.141,0.396 -0.24,0.749 -0.254,1.046c-0.028,0.31 -0.042,0.734 -0.042,1.214l0,1.37l2.217,-0l-0,-1.37c-0,-0.791 0.169,-1.328 0.508,-1.624c0.156,-0.141 0.367,-0.24 0.636,-0.311c0.268,-0.056 0.466,-0.084 0.649,-0.098l4.984,-0c0.325,0.014 0.961,0.141 1.271,0.409c0.339,0.296 0.509,0.833 0.509,1.624l-0,2.866c-0,0.932 -0.17,1.553 -0.509,1.85c-0.155,0.141 -0.367,0.24 -0.635,0.31c-0.268,0.086 -0.466,0.114 -0.636,0.114c-0.169,0.014 -0.423,0.014 -0.776,0.014l-3.022,-0l-0,1.963l3.276,-0c0.876,-0 1.468,0.155 1.793,0.48c0.17,0.169 0.297,0.367 0.368,0.621c0.084,0.268 0.112,0.48 0.127,0.636c0.014,0.169 0.014,0.423 0.014,0.762l-0,3.219c-0,0.89 -0.057,1.441 -0.509,1.836c-0.339,0.311 -1.03,0.466 -2.047,0.466l-3.445,0c-1.017,0 -1.709,-0.155 -2.048,-0.466c-0.141,-0.141 -0.254,-0.325 -0.339,-0.55c-0.155,-0.438 -0.169,-0.693 -0.169,-1.286l-0,-1.539l-2.217,0Zm25.953,5.79l12.497,-0c1.172,-0 2.175,-0.099 2.979,-0.283c0.805,-0.183 1.469,-0.593 1.992,-1.214c0.593,-0.692 0.959,-1.582 1.101,-2.782c0.056,-0.607 0.113,-1.116 0.127,-1.511c0.014,-0.395 0.014,-0.932 0.014,-1.651l0,-7.301c0,-0.721 0,-1.271 -0.014,-1.667c-0.014,-0.395 -0.071,-0.889 -0.127,-1.496c-0.142,-1.2 -0.508,-2.09 -1.101,-2.796c-0.523,-0.607 -1.187,-1.031 -1.992,-1.214c-0.804,-0.17 -1.807,-0.268 -2.979,-0.268l-12.497,-0l0,1.948l2.598,0l0,18.286l-2.598,0l0,1.949Zm5.056,-1.949l-0,-18.286l7.441,0c1.497,0 2.499,0.367 2.993,1.116c0.241,0.339 0.411,0.79 0.523,1.341c0.113,0.551 0.198,1.017 0.212,1.398c0.014,0.396 0.014,0.932 0.014,1.638l0,7.301c0,0.705 0,1.242 -0.014,1.623c-0.014,0.396 -0.099,0.848 -0.212,1.412c-0.112,0.551 -0.282,1.003 -0.523,1.341c-0.494,0.749 -1.496,1.116 -2.993,1.116l-7.441,0Zm45.609,-2.273l-0,0.903c-0,1.314 0.311,2.203 0.932,2.669c0.268,0.212 0.649,0.353 1.101,0.438c0.466,0.113 0.847,0.169 1.187,0.184c0.31,0.014 0.748,0.028 1.341,0.028l3.149,-0c0.593,-0 1.03,-0.014 1.369,-0.028c0.325,-0.015 0.721,-0.071 1.173,-0.184c0.466,-0.085 0.832,-0.226 1.101,-0.438c0.607,-0.437 0.918,-1.327 0.918,-2.669l-0,-1.793c-0,-1.313 -0.311,-2.203 -0.918,-2.64c-0.269,-0.212 -0.635,-0.353 -1.101,-0.466c-0.452,-0.085 -0.848,-0.155 -1.173,-0.17c-0.339,-0.014 -0.776,-0.014 -1.369,-0.014l-3.149,-0c-0.904,-0 -1.525,-0.099 -1.878,-0.268c-0.325,-0.184 -0.48,-0.537 -0.48,-1.101l-0,-1.794c-0,-0.565 0.155,-0.932 0.48,-1.102c0.339,-0.183 0.96,-0.254 1.878,-0.254l3.064,0c0.876,0 1.454,0.071 1.751,0.254c0.31,0.17 0.452,0.552 0.452,1.102l0,0.903l2.203,0l-0,-0.903c-0,-1.327 -0.283,-2.217 -0.876,-2.655c-0.268,-0.211 -0.635,-0.352 -1.073,-0.466c-0.452,-0.098 -0.833,-0.155 -1.144,-0.169c-0.325,-0.014 -0.762,-0.014 -1.313,-0.014l-3.064,-0c-0.593,-0 -1.031,-0 -1.341,0.014c-0.34,0.014 -0.721,0.071 -1.187,0.169c-0.452,0.114 -0.833,0.255 -1.101,0.466c-0.621,0.452 -0.932,1.342 -0.932,2.655l-0,1.794c-0,1.312 0.311,2.188 0.932,2.654c0.268,0.197 0.649,0.338 1.101,0.438c0.466,0.113 0.847,0.155 1.187,0.183c0.31,0.014 0.748,0.028 1.341,0.028l3.149,0c0.903,0 1.539,0.1 1.892,0.269c0.297,0.155 0.466,0.522 0.466,1.087l-0,1.793c-0,0.593 -0.169,0.961 -0.466,1.116c-0.325,0.17 -0.946,0.254 -1.892,0.254l-3.149,0c-0.918,0 -1.539,-0.084 -1.878,-0.254c-0.325,-0.17 -0.48,-0.537 -0.48,-1.116l-0,-0.903l-2.203,-0Zm25.967,-5.422l0,4.405c0,0.649 0.015,1.158 0.043,1.553c0.014,0.41 0.113,0.862 0.268,1.37c0.141,0.522 0.367,0.932 0.65,1.271c0.451,0.494 1.031,0.776 1.765,0.904c0.734,0.127 1.172,0.141 2.048,0.141l3.403,-0c1.793,-0 2.951,-0.155 3.798,-1.045c0.282,-0.339 0.508,-0.749 0.664,-1.271c0.141,-0.522 0.239,-0.96 0.253,-1.37c0.015,-0.381 0.029,-0.904 0.029,-1.553l0,-4.405c0,-0.65 -0.014,-1.173 -0.029,-1.568c-0.014,-0.382 -0.112,-0.819 -0.253,-1.341c-0.156,-0.537 -0.382,-0.946 -0.664,-1.271c-0.452,-0.494 -1.017,-0.777 -1.751,-0.904c-0.367,-0.071 -0.692,-0.113 -0.96,-0.127c-0.283,-0.014 -0.65,-0.014 -1.087,-0.014l-3.403,-0c-0.876,-0 -1.314,0.014 -2.048,0.141c-0.734,0.127 -1.314,0.41 -1.765,0.904c-0.283,0.325 -0.509,0.734 -0.65,1.243c-0.155,0.521 -0.254,0.974 -0.268,1.369c-0.028,0.395 -0.043,0.918 -0.043,1.568Zm2.203,4.405l0,-4.405c0,-0.41 0,-0.749 0.015,-0.975c0.014,-0.48 0.198,-1.257 0.508,-1.652c0.339,-0.438 1.016,-0.65 2.048,-0.65l3.403,0c1.03,0 1.722,0.212 2.047,0.65c0.339,0.424 0.494,1.2 0.494,2.33l0,5.012c0,1.116 -0.155,1.893 -0.494,2.33c-0.325,0.424 -1.017,0.65 -2.047,0.65l-3.403,0c-1.032,0 -1.709,-0.226 -2.048,-0.65c-0.155,-0.211 -0.282,-0.48 -0.367,-0.804c-0.071,-0.339 -0.127,-0.621 -0.141,-0.862c-0.015,-0.239 -0.015,-0.55 -0.015,-0.974Zm24.048,5.239l6.439,-0l-0,-1.949l-2.104,0l0,-21.859l-4.335,0l0,1.949l2.118,0l-0,19.91l-2.118,0l0,1.949Zm19.034,-12.921l2.104,0l0,7.992c0,0.594 0.014,1.074 0.057,1.441c0.014,0.367 0.084,0.791 0.24,1.271c0.127,0.494 0.31,0.875 0.578,1.172c0.396,0.452 0.932,0.776 1.639,0.904c0.691,0.127 1.115,0.141 1.934,0.141l9.616,-0l0,-1.949l-2.118,0l0,-12.92l-4.306,-0l-0,1.948l2.103,0l0,10.972l-5.295,0c-0.875,0 -1.482,-0.226 -1.779,-0.65c-0.296,-0.437 -0.466,-1.313 -0.466,-2.64l-0,-9.63l-4.307,-0l0,1.948Zm28.552,0l2.358,0l0,8.572c0,0.564 0.014,1.002 0.028,1.298c0.014,0.311 0.071,0.693 0.198,1.116c0.127,0.424 0.325,0.791 0.579,1.059c0.24,0.269 0.551,0.466 0.946,0.593c0.382,0.142 0.734,0.226 1.031,0.24c0.31,0.029 0.72,0.043 1.215,0.043l2.937,-0l-0,-1.949l-2.937,0c-0.721,0 -1.201,-0.155 -1.427,-0.494c-0.24,-0.339 -0.367,-0.96 -0.367,-1.906l0,-8.572l4.081,0l-0,-1.948l-4.081,-0l0,-4.745l-2.203,0l0,4.745l-2.358,-0l-0,1.948Zm23.355,-5.365l2.768,-0l0,-2.754l-2.768,0l0,2.754Zm-1.821,18.286l6.439,-0l0,-1.949l-2.104,0l-0,-12.92l-4.335,-0l-0,1.948l2.118,0l0,10.972l-2.118,0l-0,1.949Zm19.741,-9.644l-0,4.405c-0,0.649 0.014,1.158 0.056,1.553c0.014,0.41 0.113,0.862 0.268,1.37c0.142,0.522 0.367,0.932 0.649,1.271c0.438,0.494 1.032,0.776 1.752,0.904c0.734,0.127 1.186,0.141 2.047,0.141l3.417,-0c1.793,-0 2.952,-0.155 3.785,-1.045c0.282,-0.339 0.508,-0.749 0.663,-1.271c0.141,-0.522 0.241,-0.96 0.255,-1.37c0.013,-0.381 0.042,-0.904 0.042,-1.553l0,-4.405c0,-0.65 -0.029,-1.173 -0.042,-1.568c-0.014,-0.382 -0.114,-0.819 -0.255,-1.341c-0.155,-0.537 -0.381,-0.946 -0.663,-1.271c-0.438,-0.494 -1.017,-0.777 -1.737,-0.904c-0.367,-0.071 -0.706,-0.113 -0.974,-0.127c-0.283,-0.014 -0.65,-0.014 -1.074,-0.014l-3.417,-0c-0.861,-0 -1.313,0.014 -2.047,0.141c-0.72,0.127 -1.314,0.41 -1.752,0.904c-0.282,0.325 -0.507,0.734 -0.649,1.243c-0.155,0.521 -0.254,0.974 -0.268,1.369c-0.042,0.395 -0.056,0.918 -0.056,1.568Zm2.202,4.405l0,-4.405c0,-0.41 0,-0.749 0.028,-0.975c0.014,-0.48 0.184,-1.257 0.495,-1.652c0.339,-0.438 1.016,-0.65 2.047,-0.65l3.417,0c1.031,0 1.709,0.212 2.048,0.65c0.325,0.424 0.48,1.2 0.48,2.33l-0,5.012c-0,1.116 -0.155,1.893 -0.48,2.33c-0.339,0.424 -1.017,0.65 -2.048,0.65l-3.417,0c-1.031,0 -1.708,-0.226 -2.047,-0.65c-0.156,-0.211 -0.283,-0.48 -0.354,-0.804c-0.084,-0.339 -0.127,-0.621 -0.141,-0.862c-0.028,-0.239 -0.028,-0.55 -0.028,-0.974Zm24.061,5.239l6.665,-0l0,-1.949l-2.343,0l-0,-10.972l5.492,0c0.932,0 1.554,0.212 1.878,0.65c0.325,0.424 0.481,1.313 0.481,2.627l-0,7.695l-2.33,0l-0,1.949l6.665,-0l-0,-1.949l-2.132,0l-0,-7.695c-0,-0.679 -0.015,-1.201 -0.029,-1.568c-0.014,-0.367 -0.099,-0.819 -0.24,-1.341c-0.141,-0.537 -0.338,-0.946 -0.635,-1.271c-0.424,-0.466 -0.96,-0.777 -1.681,-0.904c-0.706,-0.127 -1.157,-0.141 -1.977,-0.141l-9.814,-0l0,1.948l2.105,0l-0,10.972l-2.105,0l0,1.949Zm29.527,-4.222l0,0.903c0,1.314 0.31,2.203 0.932,2.669c0.268,0.212 0.649,0.353 1.115,0.438c0.452,0.113 0.834,0.169 1.172,0.184c0.311,0.014 0.763,0.028 1.342,0.028l3.162,-0c0.58,-0 1.032,-0.014 1.357,-0.028c0.324,-0.015 0.719,-0.071 1.171,-0.184c0.466,-0.085 0.834,-0.226 1.102,-0.438c0.621,-0.437 0.917,-1.327 0.917,-2.669l0,-1.793c0,-1.313 -0.296,-2.203 -0.917,-2.64c-0.268,-0.212 -0.636,-0.353 -1.102,-0.466c-0.452,-0.085 -0.847,-0.155 -1.171,-0.17c-0.325,-0.014 -0.777,-0.014 -1.357,-0.014l-3.162,-0c-0.904,-0 -1.525,-0.099 -1.864,-0.268c-0.339,-0.184 -0.494,-0.537 -0.494,-1.101l-0,-1.794c-0,-0.565 0.155,-0.932 0.494,-1.102c0.325,-0.183 0.946,-0.254 1.864,-0.254l3.064,0c0.875,0 1.455,0.071 1.765,0.254c0.297,0.17 0.438,0.552 0.438,1.102l-0,0.903l2.203,0l-0,-0.903c-0,-1.327 -0.283,-2.217 -0.876,-2.655c-0.268,-0.211 -0.636,-0.352 -1.073,-0.466c-0.438,-0.098 -0.819,-0.155 -1.144,-0.169c-0.311,-0.014 -0.763,-0.014 -1.313,-0.014l-3.064,-0c-0.579,-0 -1.031,-0 -1.342,0.014c-0.338,0.014 -0.72,0.071 -1.172,0.169c-0.466,0.114 -0.847,0.255 -1.115,0.466c-0.622,0.452 -0.932,1.342 -0.932,2.655l0,1.794c0,1.312 0.31,2.188 0.932,2.654c0.268,0.197 0.649,0.338 1.115,0.438c0.452,0.113 0.834,0.155 1.172,0.183c0.311,0.014 0.763,0.028 1.342,0.028l3.162,0c0.904,0 1.54,0.1 1.878,0.269c0.311,0.155 0.466,0.522 0.466,1.087l0,1.793c0,0.593 -0.155,0.961 -0.466,1.116c-0.324,0.17 -0.946,0.254 -1.878,0.254l-3.162,0c-0.918,0 -1.539,-0.084 -1.864,-0.254c-0.339,-0.17 -0.494,-0.537 -0.494,-1.116l-0,-0.903l-2.203,-0Z" style="fill:#a81106;fill-rule:nonzero;"/><rect x="-7.086" y="-5.442" width="583.265" height="144.36" style="fill-opacity:0.22;"/><defs><radialGradient id="_Radial1" cx="0" cy="0" r="1" gradientUnits="userSpaceOnUse" gradientTransform="matrix(30.3507,23.257,-30.3507,23.257,80.8445,50.537)"><stop offset="0" style="stop-color:#fff;stop-opacity:1"/><stop offset="0.2" style="stop-color:#f85b5f;stop-opacity:1"/><stop offset="0.3" style="stop-color:#ef3b3e;stop-opacity:1"/><stop offset="0.8" style="stop-color:#a81106;stop-opacity:1"/><stop offset="1" style="stop-color:#a81106;stop-opacity:1"/></radialGradient><linearGradient id="_Linear2" x1="0" y1="0" x2="1" y2="0" gradientUnits="userSpaceOnUse" gradientTransform="matrix(106.046,0,0,106.046,12.6267,62.5001)"><stop offset="0" style="stop-color:#cdcdcd;stop-opacity:1"/><stop offset="1" style="stop-color:#878787;stop-opacity:1"/></linearGradient><linearGradient id="_Linear3" x1="0" y1="0" x2="1" y2="0" gradientUnits="userSpaceOnUse" gradientTransform="matrix(51.7573,0,0,51.7573,13.2375,76.7488)"><stop offset="0" style="stop-color:#cdcdcd;stop-opacity:1"/><stop offset="1" style="stop-color:#878787;stop-opacity:1"/></linearGradient></defs></svg>