<?xml version="1.0" encoding="UTF-8" standalone="no"?><!DOCTYPE svg PUBLIC "-//W3C//DTD SVG 1.1//EN" "http://www.w3.org/Graphics/SVG/1.1/DTD/svg11.dtd"><svg width="100%" height="100%" viewBox="0 0 1024 820" version="1.1" xmlns="http://www.w3.org/2000/svg" xmlns:xlink="http://www.w3.org/1999/xlink" xml:space="preserve" xmlns:serif="http://www.serif.com/" style="fill-rule:evenodd;clip-rule:evenodd;stroke-linejoin:round;stroke-miterlimit:2;"><g><path d="M583.315,165.506c-8.365,-16.844 -75.305,-45.806 -154.378,-42.131c16.374,-51.809 42.378,-73.799 42.378,-73.799c-85.385,-12.553 -189.187,55.603 -231.023,167.405l67.154,-17.316c52.743,-11.287 125.819,-21.587 178.423,-7.797c91.688,24.034 -194.933,152.628 -194.933,152.628c0,-0 62.245,26.425 155.429,-9.708c134.211,-52.041 151.982,-139.016 136.95,-169.282Z" style="fill:#4c4343;fill-rule:nonzero;"/><path d="M418.589,105.179c63.362,-0 114.804,51.442 114.804,114.805c0,63.362 -51.442,114.804 -114.804,114.804c-63.362,-0 -114.805,-51.442 -114.805,-114.804c0,-63.363 51.443,-114.805 114.805,-114.805Z" style="fill:url(#_Radial1);"/><path d="M426.534,224.442c-12.023,-29.834 -97.68,-18.479 -122.488,-12.14c-0.168,2.54 -0.262,5.1 -0.262,7.682c0,35.931 16.512,68.003 42.356,89.054c19.427,-8.577 92.703,-54.05 80.394,-84.596Z" style="fill:#a81106;fill-rule:nonzero;"/><path d="M370.373,161.614c31.098,-9.358 61.881,-14.304 89.024,-14.304c23.804,-0 41.668,3.419 54.626,8.845c-20.599,-30.739 -55.652,-50.976 -95.434,-50.976c-51.667,-0 -95.359,34.133 -109.766,81.079c19.214,-9.777 40.083,-18.185 61.55,-24.644Z" style="fill:#a81106;fill-rule:nonzero;"/><path d="M533.388,220.444c-8.199,13.741 -21.574,28.156 -39.29,41.998c-32.888,25.695 -76.421,46.566 -122.579,58.77c-1.593,0.421 -3.184,0.828 -4.775,1.226c15.574,7.896 33.188,12.35 51.845,12.35c63.251,-0 114.55,-51.151 114.799,-114.344Z" style="fill:#a81106;fill-rule:nonzero;"/><path d="M585.21,156.319c0,-0 -42.623,-47.327 -121.779,-51.117c-139.293,-6.67 -93.319,-31.889 -68.098,-42.011c31.505,-12.645 75.796,-13.603 75.982,-13.615c-16.664,-5.15 -34.37,-7.927 -52.726,-7.927c-97.488,-0 -176.692,78.227 -178.297,175.332c30.339,-27.152 74.997,-51.958 126.448,-67.44c102.462,-30.831 188.6,-12.053 188.6,41.846c0,52.579 -82.414,116.055 -180.599,142.013c-30.323,8.016 -58.87,11.556 -83.805,11.096c32.386,33.201 77.608,53.822 127.653,53.822c98.491,-0 178.335,-79.843 178.335,-178.334c0,-22.432 -4.154,-43.891 -11.714,-63.665Z" style="fill:url(#_Linear2);fill-rule:nonzero;"/><path d="M280.549,232.328c-13.592,4.508 -26.427,9.557 -38.203,14.923c4.131,26.923 14.29,51.857 29.045,73.394c11.328,-2.6 23.136,-5.895 35.171,-9.886c67.461,-22.375 116.325,-58.071 109.142,-79.729c-7.184,-21.658 -67.695,-21.077 -135.155,1.298Z" style="fill:url(#_Linear3);fill-rule:nonzero;"/><path d="M229.807,472.816l-14.505,-0c-0.576,-0 -1.172,0.032 -1.787,0.096c-0.602,0.064 -1.127,0.256 -1.575,0.576c-0.384,0.321 -0.621,0.718 -0.711,1.191c-0.102,0.487 -0.154,0.987 -0.154,1.499l0,4.611c0,0.512 0.052,1.005 0.154,1.479c0.09,0.487 0.327,0.89 0.711,1.21c0.448,0.321 0.973,0.513 1.575,0.577c0.615,0.064 1.211,0.096 1.787,0.096l14.505,-0l0,-11.335Zm15.369,19.019l-29.874,-0c-1.857,-0 -3.759,-0.096 -5.706,-0.288c-1.96,-0.192 -3.612,-0.832 -4.957,-1.921c-1.28,-1.089 -2.049,-2.421 -2.305,-3.996c-0.256,-1.562 -0.384,-3.176 -0.384,-4.841l0,-4.611c0,-1.665 0.128,-3.285 0.384,-4.861c0.256,-1.562 1.025,-2.888 2.305,-3.976c1.345,-1.089 2.997,-1.729 4.957,-1.921c1.947,-0.193 3.849,-0.289 5.706,-0.289l14.505,-0l0,-4.995c0,-0.704 -0.084,-1.389 -0.25,-2.055c-0.154,-0.679 -0.519,-1.211 -1.095,-1.595c-0.705,-0.512 -1.582,-0.8 -2.632,-0.864c-1.063,-0.064 -2.075,-0.096 -3.036,-0.096l-6.82,-0c-0.512,-0 -1.012,0.012 -1.498,0.038c-0.474,0.038 -0.871,0.218 -1.191,0.538c-0.321,0.32 -0.513,0.672 -0.577,1.057c-0.064,0.384 -0.096,0.8 -0.096,1.248l0,1.921l-9.125,-0l0,-1.921c0,-1.537 0.115,-3.074 0.346,-4.61c0.217,-1.537 0.935,-2.818 2.151,-3.843c1.281,-1.088 2.818,-1.716 4.611,-1.883c1.793,-0.153 3.586,-0.23 5.379,-0.23l6.82,-0c2.242,-0 4.547,0.096 6.917,0.288c2.369,0.192 4.386,0.929 6.051,2.209c1.473,1.089 2.37,2.53 2.69,4.323c0.32,1.793 0.48,3.618 0.48,5.475l0,24.015l6.244,-0l0,7.684Zm55.809,-36.309l-14.408,-0c-0.897,-0 -1.825,0.096 -2.786,0.288c-0.961,0.192 -1.697,0.672 -2.209,1.441c-0.513,0.768 -0.833,1.665 -0.961,2.689c-0.128,1.025 -0.192,2.081 -0.192,3.17l0,13.448c0,1.089 0.064,2.145 0.192,3.17c0.128,1.025 0.448,1.921 0.961,2.69c0.512,0.768 1.248,1.248 2.209,1.441c0.961,0.192 1.889,0.288 2.786,0.288l14.408,-0l0,-28.625Zm15.37,36.309l-29.778,-0c-2.242,-0 -4.464,-0.128 -6.667,-0.384c-2.215,-0.256 -4.092,-1.217 -5.629,-2.882c-1.537,-1.665 -2.433,-3.669 -2.689,-6.013c-0.256,-2.331 -0.385,-4.649 -0.385,-6.954l0,-11.527c0,-2.306 0.129,-4.624 0.385,-6.955c0.256,-2.344 1.152,-4.348 2.689,-6.013c1.537,-1.665 3.414,-2.626 5.629,-2.882c2.203,-0.256 4.425,-0.384 6.667,-0.384l14.408,-0l0,-18.731l-6.244,-0l0,-7.685l15.37,-0l0,62.726l6.244,-0l0,7.684Zm54.56,-19.019l-14.504,-0c-0.577,-0 -1.172,0.032 -1.787,0.096c-0.602,0.064 -1.127,0.256 -1.575,0.576c-0.385,0.321 -0.622,0.718 -0.711,1.191c-0.103,0.487 -0.154,0.987 -0.154,1.499l0,4.611c0,0.512 0.051,1.005 0.154,1.479c0.089,0.487 0.326,0.89 0.711,1.21c0.448,0.321 0.973,0.513 1.575,0.577c0.615,0.064 1.21,0.096 1.787,0.096l14.504,-0l0,-11.335Zm15.37,19.019l-29.874,-0c-1.857,-0 -3.759,-0.096 -5.706,-0.288c-1.96,-0.192 -3.612,-0.832 -4.957,-1.921c-1.281,-1.089 -2.049,-2.421 -2.305,-3.996c-0.256,-1.562 -0.384,-3.176 -0.384,-4.841l0,-4.611c0,-1.665 0.128,-3.285 0.384,-4.861c0.256,-1.562 1.024,-2.888 2.305,-3.976c1.345,-1.089 2.997,-1.729 4.957,-1.921c1.947,-0.193 3.849,-0.289 5.706,-0.289l14.504,-0l0,-4.995c0,-0.704 -0.076,-1.389 -0.23,-2.055c-0.167,-0.679 -0.538,-1.211 -1.114,-1.595c-0.705,-0.512 -1.582,-0.8 -2.632,-0.864c-1.063,-0.064 -2.075,-0.096 -3.036,-0.096l-6.82,-0c-0.512,-0 -1.012,0.012 -1.498,0.038c-0.474,0.038 -0.871,0.218 -1.192,0.538c-0.32,0.32 -0.512,0.672 -0.576,1.057c-0.064,0.384 -0.096,0.8 -0.096,1.248l0,1.921l-9.125,-0l0,-1.921c0,-1.537 0.115,-3.074 0.345,-4.61c0.218,-1.537 0.935,-2.818 2.152,-3.843c1.281,-1.088 2.818,-1.716 4.611,-1.883c1.793,-0.153 3.586,-0.23 5.379,-0.23l6.82,-0c2.241,-0 4.547,0.096 6.916,0.288c2.37,0.192 4.387,0.929 6.052,2.209c1.473,1.089 2.369,2.53 2.69,4.323c0.32,1.793 0.48,3.618 0.48,5.475l0,24.015l6.244,-0l0,7.684Zm52.351,-30.834l0,-2.209c0,-0.513 -0.045,-0.993 -0.134,-1.441c-0.103,-0.449 -0.378,-0.833 -0.827,-1.153c-0.512,-0.32 -1.12,-0.512 -1.825,-0.576c-0.704,-0.064 -1.408,-0.096 -2.113,-0.096l-7.108,-0l0,28.625l6.916,-0l0,7.684l-22.285,-0l0,-7.684l6.243,-0l0,-28.625l-6.243,-0l0,-7.685l22.477,-0c1.985,-0 4.002,0.096 6.052,0.288c2.049,0.192 3.778,0.833 5.187,1.921c1.281,1.025 2.068,2.318 2.363,3.881c0.282,1.575 0.423,3.196 0.423,4.861l0,2.209l-9.126,-0Zm47.645,-5.475l0,22.669c0,0.833 0.044,1.697 0.134,2.594c0.103,0.896 0.378,1.633 0.826,2.209c0.384,0.512 0.897,0.833 1.537,0.961c0.641,0.128 1.313,0.192 2.017,0.192l8.261,-0l0,7.684l-8.261,-0c-1.985,-0 -3.957,-0.115 -5.917,-0.345c-1.947,-0.218 -3.592,-0.999 -4.937,-2.344c-1.345,-1.345 -2.145,-3.01 -2.402,-4.995c-0.256,-1.985 -0.384,-3.971 -0.384,-5.956l0,-22.669l-6.916,-0l0,-7.685l6.916,-0l0,-14.024l9.126,-0l0,14.024l12.103,-0l0,7.685l-12.103,-0Zm59.651,27.472l10.951,-27.472l-4.995,-0l0,-7.685l18.827,-0l0,7.685l-4.995,-0l-19.788,49.757l5.668,-0l0,7.685l-21.325,-0l0,-7.685l6.82,-0l4.419,-11.142l-15.273,-38.615l-4.995,-0l0,-7.685l18.827,-0l0,7.685l-4.995,-0l10.854,27.472Zm80.017,-2.017l0,-4.131c0,-1.537 -0.641,-2.446 -1.922,-2.728c-1.28,-0.294 -2.689,-0.442 -4.226,-0.442l-8.261,-0c-2.113,-0 -4.31,-0.096 -6.59,-0.288c-2.267,-0.192 -4.169,-0.832 -5.706,-1.921c-1.344,-0.896 -2.196,-2.145 -2.555,-3.746c-0.345,-1.601 -0.518,-3.234 -0.518,-4.899l0,-4.131c0,-1.665 0.173,-3.298 0.518,-4.898c0.359,-1.601 1.211,-2.85 2.555,-3.747c1.537,-1.088 3.439,-1.729 5.706,-1.921c2.28,-0.192 4.477,-0.288 6.59,-0.288l7.973,-0c2.049,-0 4.162,0.096 6.339,0.288c2.178,0.192 4.003,0.833 5.476,1.921c1.281,0.961 2.094,2.222 2.44,3.785c0.358,1.575 0.538,3.195 0.538,4.86l0,2.114l-9.126,-0l0,-2.114c0,-0.512 -0.083,-0.992 -0.25,-1.44c-0.153,-0.449 -0.454,-0.801 -0.903,-1.057c-0.576,-0.32 -1.28,-0.512 -2.113,-0.576c-0.832,-0.064 -1.633,-0.096 -2.401,-0.096l-7.973,-0c-0.897,-0 -1.793,0.032 -2.69,0.096c-0.896,0.064 -1.665,0.256 -2.305,0.576c-0.448,0.256 -0.756,0.608 -0.922,1.057c-0.154,0.448 -0.231,0.928 -0.231,1.44l0,4.131c0,0.512 0.077,0.993 0.231,1.441c0.166,0.448 0.474,0.8 0.922,1.056c0.64,0.321 1.409,0.513 2.305,0.577c0.897,0.064 1.793,0.096 2.69,0.096l8.261,-0c2.113,-0 4.29,0.096 6.532,0.288c2.241,0.192 4.13,0.833 5.667,1.921c1.345,0.897 2.19,2.145 2.536,3.746c0.359,1.601 0.538,3.234 0.538,4.899l0,4.131c0,1.665 -0.179,3.298 -0.538,4.899c-0.346,1.601 -1.191,2.85 -2.536,3.746c-1.537,1.089 -3.426,1.729 -5.667,1.921c-2.242,0.192 -4.419,0.288 -6.532,0.288l-8.261,-0c-2.113,-0 -4.31,-0.096 -6.59,-0.288c-2.267,-0.192 -4.169,-0.832 -5.706,-1.921c-1.344,-0.896 -2.196,-2.145 -2.555,-3.746c-0.345,-1.601 -0.518,-3.234 -0.518,-4.899l0,-2.017l9.221,-0l0,2.017c0,0.512 0.077,0.992 0.231,1.441c0.166,0.448 0.474,0.8 0.922,1.056c0.64,0.321 1.409,0.513 2.305,0.577c0.897,0.064 1.793,0.096 2.69,0.096l8.261,-0c1.537,-0 2.946,-0.148 4.226,-0.442c1.281,-0.282 1.922,-1.191 1.922,-2.728Z" style="fill:#a81106;fill-rule:nonzero;"/><path d="M224.082,557.843l0,2.094c0,2.171 0.192,3.67 1.287,4.63c0.384,0.385 0.903,0.634 1.575,0.807c0.653,0.192 1.21,0.288 1.691,0.308c0.442,0.019 1.095,0.038 1.94,0.038l4.688,-0c0.845,-0 1.498,-0.019 1.94,-0.038c0.461,-0.02 1.018,-0.116 1.671,-0.308c0.654,-0.173 1.172,-0.422 1.557,-0.807c1.095,-0.96 1.325,-2.497 1.325,-4.63l0,-4.38c0,-1.979 -0.442,-3.323 -1.325,-4.015c-0.442,-0.346 -0.98,-0.576 -1.595,-0.711c0.538,-0.115 1.076,-0.346 1.595,-0.711c0.883,-0.634 1.325,-1.882 1.325,-3.746l0,-3.9c0,-1.998 -0.23,-3.4 -1.325,-4.323c-0.385,-0.345 -0.903,-0.614 -1.557,-0.787c-0.653,-0.173 -1.21,-0.269 -1.671,-0.288c-0.442,-0.039 -1.095,-0.039 -1.94,-0.039l-4.688,-0c-0.845,-0 -1.498,-0 -1.94,0.039c-0.481,0.019 -1.038,0.115 -1.691,0.288c-0.672,0.173 -1.191,0.442 -1.575,0.787c-0.385,0.327 -0.692,0.731 -0.884,1.249c-0.192,0.538 -0.327,1.018 -0.346,1.422c-0.038,0.423 -0.057,0.999 -0.057,1.652l0,1.864l3.016,-0l0,-1.864c0,-1.076 0.23,-1.806 0.691,-2.209c0.212,-0.192 0.5,-0.327 0.865,-0.423c0.365,-0.077 0.634,-0.115 0.884,-0.134l6.781,-0c0.442,0.019 1.307,0.192 1.729,0.557c0.461,0.403 0.692,1.133 0.692,2.209l0,3.9c0,1.268 -0.231,2.113 -0.692,2.517c-0.211,0.192 -0.499,0.326 -0.864,0.422c-0.365,0.116 -0.634,0.154 -0.865,0.154c-0.23,0.019 -0.576,0.019 -1.056,0.019l-4.112,-0l0,2.671l4.457,-0c1.192,-0 1.998,0.211 2.44,0.653c0.231,0.23 0.404,0.499 0.5,0.845c0.115,0.365 0.153,0.653 0.173,0.865c0.019,0.23 0.019,0.576 0.019,1.037l0,4.38c0,1.211 -0.077,1.96 -0.692,2.498c-0.461,0.423 -1.402,0.634 -2.785,0.634l-4.688,-0c-1.383,-0 -2.325,-0.211 -2.786,-0.634c-0.192,-0.192 -0.345,-0.442 -0.461,-0.749c-0.211,-0.596 -0.23,-0.942 -0.23,-1.749l0,-2.094l-3.016,-0Zm35.31,7.877l17.003,-0c1.594,-0 2.958,-0.134 4.053,-0.384c1.095,-0.25 1.998,-0.807 2.709,-1.652c0.807,-0.942 1.306,-2.152 1.498,-3.785c0.077,-0.826 0.154,-1.518 0.173,-2.056c0.02,-0.538 0.02,-1.268 0.02,-2.247l0,-9.933c0,-0.98 0,-1.729 -0.02,-2.267c-0.019,-0.538 -0.096,-1.21 -0.173,-2.036c-0.192,-1.633 -0.691,-2.844 -1.498,-3.804c-0.711,-0.826 -1.614,-1.403 -2.709,-1.652c-1.095,-0.231 -2.459,-0.365 -4.053,-0.365l-17.003,-0l0,2.651l3.535,-0l0,24.879l-3.535,-0l0,2.651Zm6.878,-2.651l0,-24.879l10.125,-0c2.036,-0 3.4,0.499 4.072,1.518c0.327,0.461 0.558,1.075 0.711,1.825c0.154,0.749 0.269,1.383 0.288,1.902c0.02,0.538 0.02,1.268 0.02,2.228l0,9.933c0,0.96 0,1.69 -0.02,2.209c-0.019,0.538 -0.134,1.153 -0.288,1.921c-0.153,0.749 -0.384,1.364 -0.711,1.825c-0.672,1.018 -2.036,1.518 -4.072,1.518l-10.125,-0Zm62.053,-3.093l0,1.229c0,1.787 0.423,2.997 1.268,3.631c0.365,0.288 0.884,0.481 1.499,0.596c0.634,0.154 1.152,0.23 1.614,0.25c0.422,0.019 1.018,0.038 1.825,0.038l4.284,-0c0.807,-0 1.402,-0.019 1.863,-0.038c0.442,-0.02 0.98,-0.096 1.595,-0.25c0.634,-0.115 1.133,-0.308 1.498,-0.596c0.826,-0.595 1.249,-1.806 1.249,-3.631l0,-2.44c0,-1.786 -0.423,-2.997 -1.249,-3.592c-0.365,-0.288 -0.864,-0.48 -1.498,-0.634c-0.615,-0.115 -1.153,-0.211 -1.595,-0.231c-0.461,-0.019 -1.056,-0.019 -1.863,-0.019l-4.284,-0c-1.23,-0 -2.075,-0.134 -2.555,-0.365c-0.442,-0.25 -0.654,-0.73 -0.654,-1.498l0,-2.44c0,-0.769 0.212,-1.268 0.654,-1.499c0.461,-0.249 1.306,-0.346 2.555,-0.346l4.169,-0c1.191,-0 1.978,0.097 2.382,0.346c0.422,0.231 0.615,0.75 0.615,1.499l0,1.229l2.997,-0l0,-1.229c0,-1.806 -0.385,-3.016 -1.192,-3.612c-0.365,-0.288 -0.864,-0.48 -1.46,-0.634c-0.614,-0.134 -1.133,-0.211 -1.556,-0.231c-0.442,-0.019 -1.037,-0.019 -1.786,-0.019l-4.169,-0c-0.807,-0 -1.403,-0 -1.825,0.019c-0.462,0.02 -0.98,0.097 -1.614,0.231c-0.615,0.154 -1.134,0.346 -1.499,0.634c-0.845,0.615 -1.268,1.825 -1.268,3.612l0,2.44c0,1.786 0.423,2.977 1.268,3.611c0.365,0.269 0.884,0.461 1.499,0.596c0.634,0.154 1.152,0.211 1.614,0.25c0.422,0.019 1.018,0.038 1.825,0.038l4.284,-0c1.229,-0 2.094,0.135 2.574,0.365c0.404,0.211 0.634,0.711 0.634,1.479l0,2.44c0,0.807 -0.23,1.307 -0.634,1.518c-0.442,0.231 -1.287,0.346 -2.574,0.346l-4.284,-0c-1.249,-0 -2.094,-0.115 -2.555,-0.346c-0.442,-0.231 -0.654,-0.73 -0.654,-1.518l0,-1.229l-2.997,-0Zm35.33,-7.377l0,5.994c0,0.883 0.02,1.575 0.058,2.113c0.019,0.557 0.154,1.172 0.365,1.863c0.192,0.711 0.499,1.268 0.884,1.729c0.614,0.673 1.402,1.057 2.401,1.23c0.999,0.173 1.595,0.192 2.786,0.192l4.63,-0c2.44,-0 4.015,-0.211 5.168,-1.422c0.384,-0.461 0.691,-1.018 0.903,-1.729c0.192,-0.71 0.326,-1.306 0.345,-1.863c0.02,-0.519 0.039,-1.23 0.039,-2.113l0,-5.994c0,-0.884 -0.019,-1.595 -0.039,-2.133c-0.019,-0.519 -0.153,-1.114 -0.345,-1.825c-0.212,-0.73 -0.519,-1.287 -0.903,-1.729c-0.615,-0.672 -1.384,-1.057 -2.383,-1.23c-0.499,-0.096 -0.941,-0.153 -1.306,-0.173c-0.384,-0.019 -0.884,-0.019 -1.479,-0.019l-4.63,-0c-1.191,-0 -1.787,0.019 -2.786,0.192c-0.999,0.173 -1.787,0.558 -2.401,1.23c-0.385,0.442 -0.692,0.999 -0.884,1.691c-0.211,0.71 -0.346,1.325 -0.365,1.863c-0.038,0.538 -0.058,1.249 -0.058,2.133Zm2.997,5.994l0,-5.994c0,-0.558 0,-1.019 0.02,-1.326c0.019,-0.653 0.269,-1.71 0.691,-2.248c0.461,-0.595 1.383,-0.884 2.786,-0.884l4.63,-0c1.402,-0 2.344,0.289 2.785,0.884c0.462,0.577 0.673,1.633 0.673,3.17l0,6.82c0,1.518 -0.211,2.575 -0.673,3.17c-0.441,0.576 -1.383,0.884 -2.785,0.884l-4.63,-0c-1.403,-0 -2.325,-0.308 -2.786,-0.884c-0.211,-0.288 -0.384,-0.653 -0.499,-1.095c-0.096,-0.461 -0.173,-0.845 -0.192,-1.172c-0.02,-0.326 -0.02,-0.749 -0.02,-1.325Zm32.718,7.127l8.76,-0l0,-2.651l-2.862,-0l0,-29.74l-5.898,-0l0,2.652l2.881,-0l0,27.088l-2.881,-0l0,2.651Zm25.897,-17.579l2.862,-0l0,10.874c0,0.807 0.019,1.46 0.077,1.96c0.019,0.499 0.115,1.076 0.327,1.729c0.173,0.672 0.422,1.191 0.787,1.594c0.538,0.615 1.268,1.057 2.229,1.23c0.941,0.173 1.518,0.192 2.632,0.192l13.083,-0l0,-2.651l-2.882,-0l0,-17.579l-5.859,-0l0,2.651l2.862,-0l0,14.928l-7.204,-0c-1.191,-0 -2.017,-0.308 -2.421,-0.884c-0.403,-0.595 -0.634,-1.787 -0.634,-3.592l0,-13.103l-5.859,-0l0,2.651Zm38.845,-0l3.209,-0l0,11.662c0,0.768 0.019,1.364 0.038,1.767c0.019,0.423 0.096,0.942 0.269,1.518c0.173,0.576 0.442,1.076 0.788,1.441c0.326,0.365 0.749,0.634 1.287,0.807c0.519,0.192 0.999,0.307 1.402,0.326c0.423,0.039 0.98,0.058 1.653,0.058l3.996,-0l0,-2.651l-3.996,-0c-0.98,-0 -1.633,-0.211 -1.941,-0.673c-0.326,-0.461 -0.499,-1.306 -0.499,-2.593l0,-11.662l5.552,-0l0,-2.651l-5.552,-0l0,-6.455l-2.997,-0l0,6.455l-3.209,-0l0,2.651Zm31.776,-7.3l3.766,-0l0,-3.746l-3.766,-0l0,3.746Zm-2.478,24.879l8.761,-0l0,-2.651l-2.863,-0l0,-17.579l-5.898,-0l0,2.651l2.882,-0l0,14.928l-2.882,-0l0,2.651Zm26.858,-13.121l0,5.994c0,0.883 0.019,1.575 0.077,2.113c0.019,0.557 0.153,1.172 0.365,1.863c0.192,0.711 0.499,1.268 0.883,1.729c0.596,0.673 1.403,1.057 2.383,1.23c0.999,0.173 1.613,0.192 2.785,0.192l4.649,-0c2.44,-0 4.016,-0.211 5.149,-1.422c0.384,-0.461 0.692,-1.018 0.903,-1.729c0.192,-0.71 0.327,-1.306 0.346,-1.863c0.019,-0.519 0.058,-1.23 0.058,-2.113l0,-5.994c0,-0.884 -0.039,-1.595 -0.058,-2.133c-0.019,-0.519 -0.154,-1.114 -0.346,-1.825c-0.211,-0.73 -0.519,-1.287 -0.903,-1.729c-0.595,-0.672 -1.383,-1.057 -2.363,-1.23c-0.499,-0.096 -0.96,-0.153 -1.325,-0.173c-0.385,-0.019 -0.884,-0.019 -1.461,-0.019l-4.649,-0c-1.172,-0 -1.786,0.019 -2.785,0.192c-0.98,0.173 -1.787,0.558 -2.383,1.23c-0.384,0.442 -0.691,0.999 -0.883,1.691c-0.212,0.71 -0.346,1.325 -0.365,1.863c-0.058,0.538 -0.077,1.249 -0.077,2.133Zm2.997,5.994l0,-5.994c0,-0.558 0,-1.019 0.038,-1.326c0.019,-0.653 0.25,-1.71 0.673,-2.248c0.461,-0.595 1.383,-0.884 2.785,-0.884l4.649,-0c1.403,-0 2.325,0.289 2.786,0.884c0.442,0.577 0.653,1.633 0.653,3.17l0,6.82c0,1.518 -0.211,2.575 -0.653,3.17c-0.461,0.576 -1.383,0.884 -2.786,0.884l-4.649,-0c-1.402,-0 -2.324,-0.308 -2.785,-0.884c-0.212,-0.288 -0.385,-0.653 -0.481,-1.095c-0.115,-0.461 -0.173,-0.845 -0.192,-1.172c-0.038,-0.326 -0.038,-0.749 -0.038,-1.325Zm32.736,7.127l9.068,-0l0,-2.651l-3.189,-0l0,-14.928l7.473,-0c1.268,-0 2.114,0.289 2.555,0.884c0.442,0.577 0.654,1.787 0.654,3.574l0,10.47l-3.17,-0l0,2.651l9.068,-0l0,-2.651l-2.901,-0l0,-10.47c0,-0.923 -0.02,-1.633 -0.039,-2.133c-0.019,-0.499 -0.134,-1.114 -0.326,-1.825c-0.193,-0.73 -0.461,-1.287 -0.865,-1.729c-0.576,-0.634 -1.306,-1.057 -2.286,-1.23c-0.961,-0.173 -1.575,-0.192 -2.69,-0.192l-13.352,-0l0,2.651l2.863,-0l0,14.928l-2.863,-0l0,2.651Zm40.172,-5.744l0,1.229c0,1.787 0.422,2.997 1.268,3.631c0.365,0.288 0.883,0.481 1.517,0.596c0.615,0.154 1.134,0.23 1.595,0.25c0.422,0.019 1.037,0.038 1.825,0.038l4.303,-0c0.788,-0 1.403,-0.019 1.845,-0.038c0.441,-0.02 0.979,-0.096 1.594,-0.25c0.634,-0.115 1.134,-0.308 1.499,-0.596c0.845,-0.595 1.248,-1.806 1.248,-3.631l0,-2.44c0,-1.786 -0.403,-2.997 -1.248,-3.592c-0.365,-0.288 -0.865,-0.48 -1.499,-0.634c-0.615,-0.115 -1.153,-0.211 -1.594,-0.231c-0.442,-0.019 -1.057,-0.019 -1.845,-0.019l-4.303,-0c-1.23,-0 -2.075,-0.134 -2.536,-0.365c-0.461,-0.25 -0.672,-0.73 -0.672,-1.498l0,-2.44c0,-0.769 0.211,-1.268 0.672,-1.499c0.442,-0.249 1.287,-0.346 2.536,-0.346l4.169,-0c1.191,-0 1.979,0.097 2.401,0.346c0.404,0.231 0.596,0.75 0.596,1.499l0,1.229l2.997,-0l0,-1.229c0,-1.806 -0.384,-3.016 -1.191,-3.612c-0.365,-0.288 -0.865,-0.48 -1.46,-0.634c-0.596,-0.134 -1.115,-0.211 -1.557,-0.231c-0.422,-0.019 -1.037,-0.019 -1.786,-0.019l-4.169,-0c-0.788,-0 -1.403,-0 -1.825,0.019c-0.461,0.02 -0.98,0.097 -1.595,0.231c-0.634,0.154 -1.152,0.346 -1.517,0.634c-0.846,0.615 -1.268,1.825 -1.268,3.612l0,2.44c0,1.786 0.422,2.977 1.268,3.611c0.365,0.269 0.883,0.461 1.517,0.596c0.615,0.154 1.134,0.211 1.595,0.25c0.422,0.019 1.037,0.038 1.825,0.038l4.303,-0c1.23,-0 2.094,0.135 2.555,0.365c0.423,0.211 0.634,0.711 0.634,1.479l0,2.44c0,0.807 -0.211,1.307 -0.634,1.518c-0.441,0.231 -1.287,0.346 -2.555,0.346l-4.303,-0c-1.249,-0 -2.094,-0.115 -2.536,-0.346c-0.461,-0.231 -0.672,-0.73 -0.672,-1.518l0,-1.229l-2.997,-0Z" style="fill:#a81106;fill-rule:nonzero;"/></g><rect x="-18.803" y="-6.159" width="1072.68" height="837.338" style="fill-opacity:0.34;"/><defs><radialGradient id="_Radial1" cx="0" cy="0" r="1" gradientUnits="userSpaceOnUse" gradientTransform="matrix(102.069,78.213,-102.069,78.213,469.707,179.752)"><stop offset="0" style="stop-color:#fff;stop-opacity:1"/><stop offset="0.2" style="stop-color:#f85b5f;stop-opacity:1"/><stop offset="0.3" style="stop-color:#ef3b3e;stop-opacity:1"/><stop offset="0.8" style="stop-color:#a81106;stop-opacity:1"/><stop offset="1" style="stop-color:#a81106;stop-opacity:1"/></radialGradient><linearGradient id="_Linear2" x1="0" y1="0" x2="1" y2="0" gradientUnits="userSpaceOnUse" gradientTransform="matrix(356.632,0,0,356.632,240.292,219.984)"><stop offset="0" style="stop-color:#cdcdcd;stop-opacity:1"/><stop offset="1" style="stop-color:#878787;stop-opacity:1"/></linearGradient><linearGradient id="_Linear3" x1="0" y1="0" x2="1" y2="0" gradientUnits="userSpaceOnUse" gradientTransform="matrix(174.059,0,0,174.059,242.346,267.902)"><stop offset="0" style="stop-color:#cdcdcd;stop-opacity:1"/><stop offset="1" style="stop-color:#878787;stop-opacity:1"/></linearGradient></defs></svg>